<?xml version="1.0" encoding="UTF-8"?>
<svg version="1.1" xmlns="http://www.w3.org/2000/svg" width="256" height="256">
<path d="M0 0 C84.48 0 168.96 0 256 0 C256 84.48 256 168.96 256 256 C171.52 256 87.04 256 0 256 C0 171.52 0 87.04 0 0 Z " fill="#FAFAFA" transform="translate(0,0)"/>
<path d="M0 0 C84.48 0 168.96 0 256 0 C256 30.36 256 60.72 256 92 C253.03 92 250.06 92 247 92 C245 89 245 89 245 85 C244.030625 84.87625 243.06125 84.7525 242.0625 84.625 C241.051875 84.41875 240.04125 84.2125 239 84 C237.44458045 80.8891609 237.85317005 77.5992624 237.875 74.1875 C237.87910889 73.42719482 237.88321777 72.66688965 237.88745117 71.88354492 C238.10179615 49.89820385 238.10179615 49.89820385 244 44 C245.17792698 36.03232412 245.0473397 27.90298389 244.96875 19.8671875 C245.00570883 16.47621487 245.38070137 13.32873015 246 10 C245.01 10 244.02 10 243 10 C242.6596875 10.8353125 242.6596875 10.8353125 242.3125 11.6875 C241 14 241 14 238.4375 16.25 C233.48220774 21.84058614 234.90289017 30.87213876 235 38 C235.08801038 44.45996212 234.90914389 50.60232075 234 57 C233.84031948 59.12400435 233.69369866 61.24904627 233.5625 63.375 C233.38393744 65.58407396 233.19681527 67.79247738 233 70 C232.92523438 70.90492187 232.85046875 71.80984375 232.7734375 72.7421875 C231.96904566 78.74706612 229.72767782 82.67450051 225.6171093 87.09565735 C220.49595961 90.82206792 214.64091445 90.16231539 208.55688477 90.00585938 C207.10235177 90.00167778 205.64780266 90.00149128 204.19326782 90.00497437 C200.2603879 90.00329219 196.33003754 89.94639421 192.39779782 89.87961388 C188.27153417 89.81936949 184.14517345 89.81138296 180.01853943 89.79797363 C172.20203824 89.76488335 164.38668396 89.68679638 156.57071775 89.59162951 C145.97227428 89.46467476 135.37349718 89.40086105 124.77452648 89.3356142 C122.22207371 89.31985686 119.66962252 89.30387449 117.11717224 89.28771973 C116.28892895 89.28251391 115.46068566 89.27730809 114.60734409 89.27194452 C109.70402777 89.23969659 104.80095623 89.19658953 99.89782536 89.14317417 C96.84038631 89.11006569 93.78291616 89.08068588 90.72543716 89.05153275 C89.31497626 89.03696522 87.90453341 89.0204978 86.49411964 89.00191879 C77.58577044 88.87517669 77.58577044 88.87517669 68.71421814 89.56066895 C65 90 65 90 63 89 C61.33397597 88.95372155 59.66623639 88.96213099 58 89 C54.14059998 89.05564011 50.5072657 88.85155646 46.6875 88.3125 C42.27894441 87.8296582 39.68337655 88.30484643 36 91 C34.95107762 92.63631892 33.95093297 94.30485863 33 96 C30.75 98.375 30.75 98.375 28 100 C24.1875 99.75 24.1875 99.75 21 99 C21 98.34 21 97.68 21 97 C19.35 97 17.7 97 16 97 C13 91.25 13 91.25 13 89 C10.25298223 90.52612098 8.10417243 91.88951409 5.9375 94.1875 C4 96 4 96 0 96 C0 64.32 0 32.64 0 0 Z " fill="#A1A7A1" transform="translate(0,0)"/>
<path d="M0 0 C1.18488007 -0.00960754 2.36976013 -0.01921509 3.59054565 -0.02911377 C4.87180328 -0.03336365 6.15306091 -0.03761353 7.47314453 -0.04199219 C8.78880402 -0.04769226 10.1044635 -0.05339233 11.45999146 -0.05926514 C14.2457925 -0.06976438 17.03156477 -0.0756141 19.81738281 -0.07910156 C23.38063961 -0.08458475 26.943514 -0.10861301 30.50665092 -0.13707352 C33.91214145 -0.16021762 37.31757943 -0.16215056 40.72314453 -0.16699219 C42.0003537 -0.17933899 43.27756287 -0.19168579 44.59347534 -0.20440674 C45.78465973 -0.20140564 46.97584412 -0.19840454 48.203125 -0.1953125 C49.24886688 -0.19895813 50.29460876 -0.20260376 51.37203979 -0.20635986 C54.71748192 0.22367199 56.5666706 1.10939823 59.23095703 3.16113281 C60.66845703 6.78613281 60.66845703 6.78613281 61.34814453 9.17675781 C62.2656324 12.27835397 63.35513345 15.2772256 64.4765625 18.30932617 C67.63441124 26.91743687 70.03957306 35.05970138 70.42236328 44.28222656 C70.47106567 45.36685181 70.47106567 45.36685181 70.52075195 46.47338867 C70.57649046 47.90454261 70.61260793 49.33662931 70.62670898 50.76879883 C70.75702177 54.81678261 70.75702177 54.81678261 73.03564453 58.02441406 C75.00177125 59.04246189 76.92821909 60.01964249 78.98095703 60.84863281 C80.05345703 61.28175781 81.12595703 61.71488281 82.23095703 62.16113281 C82.23095703 62.82113281 82.23095703 63.48113281 82.23095703 64.16113281 C82.89095703 64.16113281 83.55095703 64.16113281 84.23095703 64.16113281 C84.23095703 66.14113281 84.23095703 68.12113281 84.23095703 70.16113281 C83.24095703 70.65613281 83.24095703 70.65613281 82.23095703 71.16113281 C82.23095703 69.51113281 82.23095703 67.86113281 82.23095703 66.16113281 C80.95220703 66.01675781 79.67345703 65.87238281 78.35595703 65.72363281 C75.97402809 65.45470535 74.38643012 65.23886936 72.23095703 64.16113281 C72.24255859 65.44761719 72.25416016 66.73410156 72.26611328 68.05957031 C72.34962785 81.98954013 71.94724559 95.86760293 71.32275391 109.78295898 C71.25359664 111.57461048 71.23095703 113.36814708 71.23095703 115.16113281 C41.53095703 115.16113281 11.83095703 115.16113281 -18.76904297 115.16113281 C-22.24930022 68.75770282 -22.24930022 68.75770282 -22.10522461 54.58374023 C-22.08034752 51.97318457 -22.08489538 49.36358262 -22.09130859 46.75292969 C-22.08576364 45.0439393 -22.07867439 43.33495303 -22.06982422 41.62597656 C-22.07119133 40.49034523 -22.07119133 40.49034523 -22.07258606 39.33177185 C-21.99247336 33.35412903 -21.08517234 28.24146634 -17.83154297 23.09863281 C-15.04671984 18.59770097 -14.52346251 13.51856201 -13.67529297 8.36816406 C-12.66841716 4.80503891 -11.65739338 3.41900375 -8.76904297 1.16113281 C-5.6018733 0.10540959 -3.32722294 0.02175767 0 0 Z " fill="#B43808" transform="translate(108.76904296875,140.8388671875)"/>
<path d="M0 0 C1.18488007 -0.00960754 2.36976013 -0.01921509 3.59054565 -0.02911377 C4.87180328 -0.03336365 6.15306091 -0.03761353 7.47314453 -0.04199219 C8.78880402 -0.04769226 10.1044635 -0.05339233 11.45999146 -0.05926514 C14.2457925 -0.06976438 17.03156477 -0.0756141 19.81738281 -0.07910156 C23.38063961 -0.08458475 26.943514 -0.10861301 30.50665092 -0.13707352 C33.91214145 -0.16021762 37.31757943 -0.16215056 40.72314453 -0.16699219 C42.0003537 -0.17933899 43.27756287 -0.19168579 44.59347534 -0.20440674 C45.78465973 -0.20140564 46.97584412 -0.19840454 48.203125 -0.1953125 C49.24886688 -0.19895813 50.29460876 -0.20260376 51.37203979 -0.20635986 C54.71748192 0.22367199 56.5666706 1.10939823 59.23095703 3.16113281 C60.66845703 6.78613281 60.66845703 6.78613281 61.34814453 9.17675781 C62.2656324 12.27835397 63.35513345 15.2772256 64.4765625 18.30932617 C67.63441124 26.91743687 70.03957306 35.05970138 70.42236328 44.28222656 C70.47106567 45.36685181 70.47106567 45.36685181 70.52075195 46.47338867 C70.57649046 47.90454261 70.61260793 49.33662931 70.62670898 50.76879883 C70.75702177 54.81678261 70.75702177 54.81678261 73.03564453 58.02441406 C75.00177125 59.04246189 76.92821909 60.01964249 78.98095703 60.84863281 C80.05345703 61.28175781 81.12595703 61.71488281 82.23095703 62.16113281 C82.23095703 62.82113281 82.23095703 63.48113281 82.23095703 64.16113281 C82.89095703 64.16113281 83.55095703 64.16113281 84.23095703 64.16113281 C84.23095703 66.14113281 84.23095703 68.12113281 84.23095703 70.16113281 C83.24095703 70.65613281 83.24095703 70.65613281 82.23095703 71.16113281 C82.23095703 69.51113281 82.23095703 67.86113281 82.23095703 66.16113281 C80.95220703 66.01675781 79.67345703 65.87238281 78.35595703 65.72363281 C75.97402809 65.45470535 74.38643012 65.23886936 72.23095703 64.16113281 C72.24255859 65.44761719 72.25416016 66.73410156 72.26611328 68.05957031 C72.34962785 81.98954013 71.94724559 95.86760293 71.32275391 109.78295898 C71.25359664 111.57461048 71.23095703 113.36814708 71.23095703 115.16113281 C67.60095703 115.16113281 63.97095703 115.16113281 60.23095703 115.16113281 C59.98095703 111.97363281 59.98095703 111.97363281 60.23095703 108.16113281 C60.88064453 107.443125 61.53033203 106.72511719 62.19970703 105.98535156 C65.018776 102.06576144 64.90125268 98.88292878 64.98095703 94.16113281 C65.02325439 92.84967285 65.02325439 92.84967285 65.06640625 91.51171875 C65.14623572 88.72809995 65.19317171 85.94562044 65.23095703 83.16113281 C65.24610352 82.26072266 65.26125 81.3603125 65.27685547 80.43261719 C66.77528636 61.00117409 66.77528636 61.00117409 62.23095703 43.16113281 C62.23095703 42.50113281 62.23095703 41.84113281 62.23095703 41.16113281 C53.19060005 41.02202209 44.15061224 40.91545702 35.10941792 40.85025978 C30.91102062 40.8189656 26.71335629 40.77652996 22.51538086 40.70849609 C18.4628754 40.64323189 14.4110742 40.60741237 10.35808372 40.59186935 C8.81305034 40.58079535 7.26805489 40.55916918 5.72332191 40.52675247 C3.55616075 40.48308877 1.39189654 40.47720189 -0.77563477 40.47998047 C-2.00807419 40.4666568 -3.24051361 40.45333313 -4.51029968 40.43960571 C-9.11162989 41.45839859 -10.18899791 43.28933891 -12.76904297 47.16113281 C-12.69406389 49.18445393 -12.69406389 49.18445393 -11.76904297 51.16113281 C-11.62035712 53.36437073 -11.52122493 55.57113648 -11.45263672 57.77832031 C-11.4318103 58.42423126 -11.41098389 59.07014221 -11.38952637 59.73562622 C-11.32363989 61.83567923 -11.26472172 63.93585318 -11.20654297 66.03613281 C-11.17477463 67.10444336 -11.17477463 67.10444336 -11.1423645 68.19433594 C-10.77613308 80.5182921 -10.65149558 92.83171731 -10.76904297 105.16113281 C-10.10904297 105.16113281 -9.44904297 105.16113281 -8.76904297 105.16113281 C-8.57492116 106.63944503 -8.38892166 108.11882597 -8.20654297 109.59863281 C-8.10212891 110.42234375 -7.99771484 111.24605469 -7.89013672 112.09472656 C-7.85017578 112.77664062 -7.81021484 113.45855469 -7.76904297 114.16113281 C-8.76904297 115.16113281 -8.76904297 115.16113281 -11.05419922 115.25878906 C-11.97072266 115.2471875 -12.88724609 115.23558594 -13.83154297 115.22363281 C-15.21019531 115.21009766 -15.21019531 115.21009766 -16.61669922 115.19628906 C-17.68210937 115.17888672 -17.68210937 115.17888672 -18.76904297 115.16113281 C-20.69518127 94.14095331 -22.07781397 73.21548724 -22.08154297 52.09863281 C-22.08476563 51.19485901 -22.08798828 50.29108521 -22.09130859 49.35992432 C-22.09695625 46.78170936 -22.08682319 44.20413219 -22.06982422 41.62597656 C-22.07061478 40.87028885 -22.07140533 40.11460114 -22.07221985 39.33601379 C-21.99325839 33.35686937 -21.08598047 28.2427437 -17.83154297 23.09863281 C-15.04671984 18.59770097 -14.52346251 13.51856201 -13.67529297 8.36816406 C-12.66841716 4.80503891 -11.65739338 3.41900375 -8.76904297 1.16113281 C-5.6018733 0.10540959 -3.32722294 0.02175767 0 0 Z " fill="#FC6126" transform="translate(108.76904296875,140.8388671875)"/>
<path d="M0 0 C0.7425 0.226875 1.485 0.45375 2.25 0.6875 C2.58 2.6675 2.91 4.6475 3.25 6.6875 C4.57 6.3575 5.89 6.0275 7.25 5.6875 C7.229375 6.80125 7.20875 7.915 7.1875 9.0625 C6.98619282 12.51965921 6.98619282 12.51965921 8.25 14.6875 C8.09845111 21.29736302 6.95698592 27.81127052 5.65234375 34.27734375 C5.14022785 36.93781571 5.14022785 36.93781571 5.25 40.6875 C4.41523159 43.76972182 3.70214318 46.12684246 1.6875 48.625 C-0.31922854 51.50421921 -0.36756273 54.24556461 -0.75 57.6875 C-1.08 58.3475 -1.41 59.0075 -1.75 59.6875 C-1.09 60.0175 -0.43 60.3475 0.25 60.6875 C0.064375 61.203125 -0.12125 61.71875 -0.3125 62.25 C-0.91094491 64.83890958 -0.91094491 64.83890958 -0.25 68.0625 C0.24019389 71.61640573 0.0133835 74.20986406 -0.75 77.6875 C-2.07 77.6875 -3.39 77.6875 -4.75 77.6875 C-6.30541955 74.5766609 -5.89682995 71.2867624 -5.875 67.875 C-5.87089111 67.11469482 -5.86678223 66.35438965 -5.86254883 65.57104492 C-5.64820385 43.58570385 -5.64820385 43.58570385 0.25 37.6875 C1.42792698 29.71982412 1.2973397 21.59048389 1.21875 13.5546875 C1.25570883 10.16371487 1.63070137 7.01623015 2.25 3.6875 C1.26 3.6875 0.27 3.6875 -0.75 3.6875 C-1.0903125 4.5228125 -1.0903125 4.5228125 -1.4375 5.375 C-2.75 7.6875 -2.75 7.6875 -5.3125 9.9375 C-10.26779226 15.52808614 -8.84710983 24.55963876 -8.75 31.6875 C-8.66198962 38.14746212 -8.84085611 44.28982075 -9.75 50.6875 C-9.90968052 52.81150435 -10.05630134 54.93654627 -10.1875 57.0625 C-10.36606256 59.27157396 -10.55318473 61.47997738 -10.75 63.6875 C-10.82476562 64.59242187 -10.89953125 65.49734375 -10.9765625 66.4296875 C-11.78095434 72.43456612 -14.02232218 76.36200051 -18.1328907 80.78315735 C-23.25404039 84.50956792 -29.10908555 83.84981539 -35.19311523 83.69335938 C-36.64764823 83.68917778 -38.10219734 83.68899128 -39.55673218 83.69247437 C-43.4896121 83.69079219 -47.41996246 83.63389421 -51.35220218 83.56711388 C-55.47846583 83.50686949 -59.60482655 83.49888296 -63.73146057 83.48547363 C-71.54796176 83.45238335 -79.36331604 83.37429638 -87.17928225 83.27912951 C-97.77772572 83.15217476 -108.37650282 83.08836105 -118.97547352 83.0231142 C-121.52792629 83.00735686 -124.08037748 82.99137449 -126.63282776 82.97521973 C-127.46107105 82.97001391 -128.28931434 82.96480809 -129.14265591 82.95944452 C-134.04597223 82.92719659 -138.94904377 82.88408953 -143.85217464 82.83067417 C-146.90961369 82.79756569 -149.96708384 82.76818588 -153.02456284 82.73903275 C-154.43502374 82.72446522 -155.84546659 82.7079978 -157.25588036 82.68941879 C-166.16422956 82.56267669 -166.16422956 82.56267669 -175.03578186 83.24816895 C-178.75 83.6875 -178.75 83.6875 -180.75 82.6875 C-182.41602403 82.64122155 -184.08376361 82.64963099 -185.75 82.6875 C-189.60940002 82.74314011 -193.2427343 82.53905646 -197.0625 82 C-201.47105559 81.5171582 -204.06662345 81.99234643 -207.75 84.6875 C-208.79892238 86.32381892 -209.79906703 87.99235863 -210.75 89.6875 C-213 92.0625 -213 92.0625 -215.75 93.6875 C-219.5625 93.4375 -219.5625 93.4375 -222.75 92.6875 C-222.75 92.0275 -222.75 91.3675 -222.75 90.6875 C-224.4 90.6875 -226.05 90.6875 -227.75 90.6875 C-230.75 84.9375 -230.75 84.9375 -230.75 82.6875 C-233.49701777 84.21362098 -235.64582757 85.57701409 -237.8125 87.875 C-239.75 89.6875 -239.75 89.6875 -243.75 89.6875 C-244.16828808 85.42096158 -244.29738997 83.39588702 -241.625 79.9375 C-234.91666667 74.6875 -234.91666667 74.6875 -230.75 74.6875 C-230.75 75.3475 -230.75 76.0075 -230.75 76.6875 C-230.09 76.6875 -229.43 76.6875 -228.75 76.6875 C-228.75 78.6675 -228.75 80.6475 -228.75 82.6875 C-228.09 82.6875 -227.43 82.6875 -226.75 82.6875 C-226.09 84.0075 -225.43 85.3275 -224.75 86.6875 C-221.37108706 86.97277408 -218.12145093 87.10621245 -214.75 86.6875 C-211.12572339 83.17304996 -211.15888301 78.51231954 -210.75 73.6875 C-210.05519531 74.01492187 -209.36039063 74.34234375 -208.64453125 74.6796875 C-205.38631172 75.81412831 -202.87550498 75.88806055 -199.4375 75.8125 C-197.83455078 75.78542969 -197.83455078 75.78542969 -196.19921875 75.7578125 C-195.39097656 75.73460938 -194.58273438 75.71140625 -193.75 75.6875 C-193.75 76.3475 -193.75 77.0075 -193.75 77.6875 C-189.13 77.3575 -184.51 77.0275 -179.75 76.6875 C-179.75 76.3575 -179.75 76.0275 -179.75 75.6875 C-161.51981418 74.98862664 -143.30652858 74.58089622 -125.0625 74.5625 C-123.75357788 74.55875366 -123.75357788 74.55875366 -122.41821289 74.55493164 C-119.92069527 74.54904182 -117.42330022 74.55052166 -114.92578125 74.5546875 C-114.18644852 74.55270355 -113.44711578 74.5507196 -112.68537903 74.54867554 C-108.59069881 74.56700979 -104.77589 74.98847306 -100.75 75.6875 C-98.66811194 75.77682972 -96.58380249 75.81811041 -94.5 75.8203125 C-92.65462646 75.82309204 -92.65462646 75.82309204 -90.77197266 75.82592773 C-89.43131406 75.82177779 -88.09065646 75.8172925 -86.75 75.8125 C-86.06524597 75.81194611 -85.38049194 75.81139221 -84.67498779 75.81082153 C-75.95928582 75.80267695 -67.25126959 75.67320637 -58.5390625 75.42578125 C-57.2660025 75.38973785 -57.2660025 75.38973785 -55.96722412 75.35296631 C-51.81750275 75.23261993 -47.66843993 75.10122542 -43.51953125 74.95556641 C-35.84061872 74.70197486 -28.38718149 74.65441433 -20.75 75.6875 C-20.42 74.6975 -20.09 73.7075 -19.75 72.6875 C-19.09 72.23375 -18.43 71.78 -17.75 71.3125 C-15.06938199 69.13449787 -15.17759434 68.12294204 -14.75 64.6875 C-14.64337016 61.33573511 -14.68158066 57.98952496 -14.72265625 54.63671875 C-14.73530518 52.63867362 -14.74766594 50.64062665 -14.75976562 48.64257812 C-14.78453882 45.50913689 -14.81249154 42.37579265 -14.84594727 39.24243164 C-14.87630687 36.20718803 -14.89397354 33.17206655 -14.91015625 30.13671875 C-14.93034569 28.74570198 -14.93034569 28.74570198 -14.95094299 27.32658386 C-14.96718259 23.07682059 -14.77955584 19.27739481 -13.67749023 15.15942383 C-12.385959 11.86316127 -12.385959 11.86316127 -13.75 9.6875 C-12.48572663 5.76825255 -10.25221375 4.60537896 -6.75 2.6875 C-6.09 2.11 -5.43 1.5325 -4.75 0.9375 C-2.75 -0.3125 -2.75 -0.3125 0 0 Z M-17.75 65.6875 C-16.76 66.1825 -16.76 66.1825 -15.75 66.6875 C-16.74 67.1825 -16.74 67.1825 -17.75 67.6875 C-17.75 67.0275 -17.75 66.3675 -17.75 65.6875 Z " fill="#DADADA" transform="translate(243.75,6.3125)"/>
<path d="M0 0 C1.18488007 -0.00960754 2.36976013 -0.01921509 3.59054565 -0.02911377 C4.87180328 -0.03336365 6.15306091 -0.03761353 7.47314453 -0.04199219 C8.78880402 -0.04769226 10.1044635 -0.05339233 11.45999146 -0.05926514 C14.2457925 -0.06976438 17.03156477 -0.0756141 19.81738281 -0.07910156 C23.38063961 -0.08458475 26.943514 -0.10861301 30.50665092 -0.13707352 C33.91214145 -0.16021762 37.31757943 -0.16215056 40.72314453 -0.16699219 C42.0003537 -0.17933899 43.27756287 -0.19168579 44.59347534 -0.20440674 C45.78465973 -0.20140564 46.97584412 -0.19840454 48.203125 -0.1953125 C49.24886688 -0.19895813 50.29460876 -0.20260376 51.37203979 -0.20635986 C54.71748192 0.22367199 56.5666706 1.10939823 59.23095703 3.16113281 C60.66845703 6.78613281 60.66845703 6.78613281 61.34814453 9.17675781 C62.2656324 12.27835397 63.35513345 15.2772256 64.4765625 18.30932617 C67.63441124 26.91743687 70.03957306 35.05970138 70.42236328 44.28222656 C70.47106567 45.36685181 70.47106567 45.36685181 70.52075195 46.47338867 C70.57649046 47.90454261 70.61260793 49.33662931 70.62670898 50.76879883 C70.75702177 54.81678261 70.75702177 54.81678261 73.03564453 58.02441406 C75.00177125 59.04246189 76.92821909 60.01964249 78.98095703 60.84863281 C80.05345703 61.28175781 81.12595703 61.71488281 82.23095703 62.16113281 C82.23095703 62.82113281 82.23095703 63.48113281 82.23095703 64.16113281 C82.89095703 64.16113281 83.55095703 64.16113281 84.23095703 64.16113281 C84.23095703 66.14113281 84.23095703 68.12113281 84.23095703 70.16113281 C83.24095703 70.65613281 83.24095703 70.65613281 82.23095703 71.16113281 C82.23095703 69.51113281 82.23095703 67.86113281 82.23095703 66.16113281 C80.95220703 66.01675781 79.67345703 65.87238281 78.35595703 65.72363281 C75.97402809 65.45470535 74.38643012 65.23886936 72.23095703 64.16113281 C72.24255859 65.44761719 72.25416016 66.73410156 72.26611328 68.05957031 C72.34962785 81.98954013 71.94724559 95.86760293 71.32275391 109.78295898 C71.25359664 111.57461048 71.23095703 113.36814708 71.23095703 115.16113281 C67.60095703 115.16113281 63.97095703 115.16113281 60.23095703 115.16113281 C59.98095703 111.97363281 59.98095703 111.97363281 60.23095703 108.16113281 C60.88064453 107.443125 61.53033203 106.72511719 62.19970703 105.98535156 C65.01876361 102.06577866 64.90129996 98.88287462 64.98095703 94.16113281 C65.02325439 92.84314697 65.02325439 92.84314697 65.06640625 91.49853516 C65.14581239 88.71932011 65.19287391 85.9412003 65.23095703 83.16113281 C65.24610352 82.29262695 65.26125 81.42412109 65.27685547 80.52929688 C65.43308134 70.46606445 65.26201719 60.40665254 64.91845703 50.34863281 C64.88486084 48.99729248 64.88486084 48.99729248 64.85058594 47.61865234 C64.64292838 42.61138023 63.88359745 38.60994941 61.94604492 33.98999023 C60.8920147 31.29427825 60.50626831 28.58039964 60.10595703 25.72363281 C59.86460555 22.12886207 59.86460555 22.12886207 58.23095703 19.16113281 C57.69766054 16.62013189 57.2667736 14.0677926 56.82861328 11.50878906 C56.40015698 8.98979799 56.40015698 8.98979799 54.23095703 7.16113281 C51.70413363 6.84731874 51.70413363 6.84731874 48.72729492 6.88647461 C47.00024071 6.87217659 47.00024071 6.87217659 45.23829651 6.85758972 C43.98935104 6.85850113 42.74040558 6.85941254 41.45361328 6.86035156 C40.17618759 6.85606644 38.8987619 6.85178131 37.58262634 6.84736633 C34.87647825 6.84161369 32.17071041 6.8401984 29.46459961 6.84545898 C25.9963621 6.85125242 22.52865884 6.83432874 19.06050968 6.81111431 C15.75404802 6.79284039 12.44761638 6.79656219 9.14111328 6.79785156 C7.27073143 6.78403694 7.27073143 6.78403694 5.36256409 6.76994324 C4.20804245 6.77617203 3.05352081 6.78240082 1.86401367 6.78881836 C0.33750938 6.78787422 0.33750938 6.78787422 -1.21983337 6.78691101 C-4.15316783 7.21752202 -5.00658535 7.83213822 -6.76904297 10.16113281 C-9.66895299 16.11561472 -10.36225923 22.63450133 -11.04638672 29.14550781 C-11.89598862 32.69087357 -13.40204815 34.43746754 -15.76904297 37.16113281 C-17.0823533 41.10106382 -16.95330687 44.86702184 -16.95654297 48.97363281 C-16.96878906 49.74900391 -16.98103516 50.524375 -16.99365234 51.32324219 C-17.00552726 56.22758377 -16.56665318 60.90598855 -15.82373047 65.75488281 C-14.60082546 73.77037534 -14.13319242 81.76088366 -13.70654297 89.84863281 C-13.59048566 92.00643006 -13.47260597 94.1640663 -13.3497467 96.32148743 C-13.24020566 98.249153 -13.13711701 100.1771821 -13.03442383 102.10522461 C-12.88511157 105.20120285 -12.88511157 105.20120285 -11.76904297 108.16113281 C-11.72950063 110.49413107 -11.72502565 112.8282147 -11.76904297 115.16113281 C-14.07904297 115.16113281 -16.38904297 115.16113281 -18.76904297 115.16113281 C-20.69518127 94.14095331 -22.07781397 73.21548724 -22.08154297 52.09863281 C-22.08476563 51.19485901 -22.08798828 50.29108521 -22.09130859 49.35992432 C-22.09695625 46.78170936 -22.08682319 44.20413219 -22.06982422 41.62597656 C-22.07061478 40.87028885 -22.07140533 40.11460114 -22.07221985 39.33601379 C-21.99325839 33.35686937 -21.08598047 28.2427437 -17.83154297 23.09863281 C-15.04671984 18.59770097 -14.52346251 13.51856201 -13.67529297 8.36816406 C-12.66841716 4.80503891 -11.65739338 3.41900375 -8.76904297 1.16113281 C-5.6018733 0.10540959 -3.32722294 0.02175767 0 0 Z " fill="#F99973" transform="translate(108.76904296875,140.8388671875)"/>
<path d="M0 0 C1.18488007 -0.00960754 2.36976013 -0.01921509 3.59054565 -0.02911377 C4.87180328 -0.03336365 6.15306091 -0.03761353 7.47314453 -0.04199219 C8.78880402 -0.04769226 10.1044635 -0.05339233 11.45999146 -0.05926514 C14.2457925 -0.06976438 17.03156477 -0.0756141 19.81738281 -0.07910156 C23.38063961 -0.08458475 26.943514 -0.10861301 30.50665092 -0.13707352 C33.91214145 -0.16021762 37.31757943 -0.16215056 40.72314453 -0.16699219 C42.0003537 -0.17933899 43.27756287 -0.19168579 44.59347534 -0.20440674 C45.78465973 -0.20140564 46.97584412 -0.19840454 48.203125 -0.1953125 C49.24886688 -0.19895813 50.29460876 -0.20260376 51.37203979 -0.20635986 C54.71748192 0.22367199 56.5666706 1.10939823 59.23095703 3.16113281 C60.66845703 6.78613281 60.66845703 6.78613281 61.34814453 9.17675781 C62.2656324 12.27835397 63.35513345 15.2772256 64.4765625 18.30932617 C67.63441124 26.91743687 70.03957306 35.05970138 70.42236328 44.28222656 C70.47106567 45.36685181 70.47106567 45.36685181 70.52075195 46.47338867 C70.57649046 47.90454261 70.61260793 49.33662931 70.62670898 50.76879883 C70.75702177 54.81678261 70.75702177 54.81678261 73.03564453 58.02441406 C75.00177125 59.04246189 76.92821909 60.01964249 78.98095703 60.84863281 C80.05345703 61.28175781 81.12595703 61.71488281 82.23095703 62.16113281 C82.23095703 62.82113281 82.23095703 63.48113281 82.23095703 64.16113281 C82.89095703 64.16113281 83.55095703 64.16113281 84.23095703 64.16113281 C84.23095703 66.14113281 84.23095703 68.12113281 84.23095703 70.16113281 C83.24095703 70.65613281 83.24095703 70.65613281 82.23095703 71.16113281 C82.23095703 69.51113281 82.23095703 67.86113281 82.23095703 66.16113281 C80.95220703 66.01675781 79.67345703 65.87238281 78.35595703 65.72363281 C75.97402809 65.45470535 74.38643012 65.23886936 72.23095703 64.16113281 C72.24255859 65.44761719 72.25416016 66.73410156 72.26611328 68.05957031 C72.34962785 81.98954013 71.94724559 95.86760293 71.32275391 109.78295898 C71.25359664 111.57461048 71.23095703 113.36814708 71.23095703 115.16113281 C69.91095703 115.16113281 68.59095703 115.16113281 67.23095703 115.16113281 C67.10595703 108.53613281 67.10595703 108.53613281 68.23095703 105.16113281 C68.32305261 103.56848359 68.35886554 101.97226216 68.36035156 100.37695312 C68.3650798 98.91832855 68.3650798 98.91832855 68.36990356 97.43023682 C68.36787933 96.37721375 68.3658551 95.32419067 68.36376953 94.23925781 C68.36520462 92.6009903 68.36520462 92.6009903 68.3666687 90.92962646 C68.36735018 88.60949649 68.36549813 86.28936461 68.36132812 83.96923828 C68.35604099 80.46675147 68.36124194 76.96439655 68.36767578 73.46191406 C68.38599936 59.39235394 68.38599936 59.39235394 67.91064453 45.33300781 C67.85376465 44.23569336 67.79688477 43.13837891 67.73828125 42.0078125 C67.16796 38.80764607 66.0065388 36.85617646 64.23095703 34.16113281 C63.35205078 31.25878906 63.35205078 31.25878906 62.66845703 28.22363281 C61.92992233 25.05296029 61.19027004 22.04585301 60.10595703 18.97363281 C59.08037513 15.67711957 58.80832319 12.54841542 58.57470703 9.11425781 C58.38296153 6.93057985 58.38296153 6.93057985 56.23095703 5.16113281 C53.10102229 4.08469104 50.13050863 4.0237296 46.83911133 4 C45.76086594 3.99039246 44.68262054 3.98078491 43.57170105 3.97088623 C42.41124771 3.96663635 41.25079437 3.96238647 40.05517578 3.95800781 C38.85665482 3.95230774 37.65813385 3.94660767 36.42329407 3.94073486 C33.88726686 3.93128981 31.35122741 3.92475285 28.81518555 3.92089844 C24.94379164 3.9111963 21.07292942 3.88016864 17.20166016 3.84863281 C14.73616851 3.84210216 12.27067308 3.83685193 9.80517578 3.83300781 C8.65079514 3.82066101 7.49641449 3.80831421 6.30705261 3.79559326 C0.205316 3.81242868 -4.44947768 4.03473384 -9.76904297 7.16113281 C-12.06840423 11.66017205 -12.42617321 16.87687494 -13.14404297 21.84863281 C-13.92157563 27.00796652 -14.7389906 31.58442136 -16.95654297 36.34863281 C-22.67230405 51.06507513 -18.5758813 70.91487674 -17.83154297 86.41113281 C-17.78833923 87.31527924 -17.7451355 88.21942566 -17.70062256 89.15097046 C-17.57404218 91.74322004 -17.44055874 94.33500604 -17.30419922 96.92675781 C-17.26558273 97.71329239 -17.22696625 98.49982697 -17.18717957 99.31019592 C-17.01376448 102.46772369 -16.77431937 105.14530361 -15.76904297 108.16113281 C-15.72950063 110.49413107 -15.72502565 112.8282147 -15.76904297 115.16113281 C-16.75904297 115.16113281 -17.74904297 115.16113281 -18.76904297 115.16113281 C-20.69518127 94.14095331 -22.07781397 73.21548724 -22.08154297 52.09863281 C-22.08476563 51.19485901 -22.08798828 50.29108521 -22.09130859 49.35992432 C-22.09695625 46.78170936 -22.08682319 44.20413219 -22.06982422 41.62597656 C-22.07061478 40.87028885 -22.07140533 40.11460114 -22.07221985 39.33601379 C-21.99325839 33.35686937 -21.08598047 28.2427437 -17.83154297 23.09863281 C-15.04671984 18.59770097 -14.52346251 13.51856201 -13.67529297 8.36816406 C-12.66841716 4.80503891 -11.65739338 3.41900375 -8.76904297 1.16113281 C-5.6018733 0.10540959 -3.32722294 0.02175767 0 0 Z " fill="#FBBCA3" transform="translate(108.76904296875,140.8388671875)"/>
<path d="M0 0 C0.99 0.495 0.99 0.495 2 1 C1.04882866 2.1725131 0.08882991 3.33787015 -0.875 4.5 C-1.40867188 5.1496875 -1.94234375 5.799375 -2.4921875 6.46875 C-2.98976562 6.9740625 -3.48734375 7.479375 -4 8 C-4.66 8 -5.32 8 -6 8 C-6 8.66 -6 9.32 -6 10 C-7.44285653 10.00634791 -7.44285653 10.00634791 -8.91486168 10.01282406 C-32.29050063 10.11589208 -55.66610796 10.22462418 -79.04169273 10.33933926 C-90.34581837 10.39468202 -101.64994716 10.44816573 -112.95410156 10.49731445 C-122.80364096 10.5401434 -132.65315702 10.58641811 -142.50266039 10.63687855 C-147.7207336 10.66348989 -152.93880215 10.68834321 -158.15690231 10.70907402 C-163.06353448 10.72862176 -167.97012217 10.7527599 -172.87671471 10.78049088 C-174.68193061 10.7898712 -176.48715629 10.79754293 -178.29238701 10.80341911 C-180.74838976 10.81166365 -183.2042841 10.82593559 -185.6602478 10.84178162 C-186.74292028 10.84324878 -186.74292028 10.84324878 -187.84746492 10.84474558 C-191.54797356 10.82543824 -191.54797356 10.82543824 -195 12 C-195 9.36 -195 6.72 -195 4 C-194.30519531 4.32742187 -193.61039063 4.65484375 -192.89453125 4.9921875 C-189.63631172 6.12662831 -187.12550498 6.20056055 -183.6875 6.125 C-182.61886719 6.10695313 -181.55023438 6.08890625 -180.44921875 6.0703125 C-179.23685547 6.03550781 -179.23685547 6.03550781 -178 6 C-178 6.66 -178 7.32 -178 8 C-173.38 7.67 -168.76 7.34 -164 7 C-164 6.67 -164 6.34 -164 6 C-145.76981418 5.30112664 -127.55652858 4.89339622 -109.3125 4.875 C-108.43988525 4.87250244 -107.56727051 4.87000488 -106.66821289 4.86743164 C-104.17069527 4.86154182 -101.67330022 4.86302166 -99.17578125 4.8671875 C-98.06678215 4.86421158 -98.06678215 4.86421158 -96.93537903 4.86117554 C-92.84069881 4.87950979 -89.02589 5.30097306 -85 6 C-82.91811194 6.08932972 -80.83380249 6.13061041 -78.75 6.1328125 C-76.90462646 6.13559204 -76.90462646 6.13559204 -75.02197266 6.13842773 C-73.68131406 6.13427779 -72.34065646 6.1297925 -71 6.125 C-70.31524597 6.12444611 -69.63049194 6.12389221 -68.92498779 6.12332153 C-60.20928582 6.11517695 -51.50126959 5.98570637 -42.7890625 5.73828125 C-41.94035583 5.71425232 -41.09164917 5.69022339 -40.21722412 5.66546631 C-36.06750275 5.54511993 -31.91843993 5.41372542 -27.76953125 5.26806641 C-20.09061872 5.01447486 -12.63718149 4.96691433 -5 6 C-4.67 5.01 -4.34 4.02 -4 3 C-1.9375 1.3125 -1.9375 1.3125 0 0 Z " fill="#C6C6C6" transform="translate(228,76)"/>
<path d="M0 0 C1.11375 0.3403125 1.11375 0.3403125 2.25 0.6875 C2.58 2.6675 2.91 4.6475 3.25 6.6875 C4.57 6.3575 5.89 6.0275 7.25 5.6875 C7.229375 6.80125 7.20875 7.915 7.1875 9.0625 C6.98619282 12.51965921 6.98619282 12.51965921 8.25 14.6875 C8.09845111 21.29736302 6.95698592 27.81127052 5.65234375 34.27734375 C5.14022785 36.93781571 5.14022785 36.93781571 5.25 40.6875 C4.41523159 43.76972182 3.70214318 46.12684246 1.6875 48.625 C-0.31922854 51.50421921 -0.36756273 54.24556461 -0.75 57.6875 C-1.08 58.3475 -1.41 59.0075 -1.75 59.6875 C-1.09 60.0175 -0.43 60.3475 0.25 60.6875 C0.064375 61.203125 -0.12125 61.71875 -0.3125 62.25 C-0.91094491 64.83890958 -0.91094491 64.83890958 -0.25 68.0625 C0.24019389 71.61640573 0.0133835 74.20986406 -0.75 77.6875 C-2.07 77.6875 -3.39 77.6875 -4.75 77.6875 C-6.30541955 74.5766609 -5.89682995 71.2867624 -5.875 67.875 C-5.87089111 67.11469482 -5.86678223 66.35438965 -5.86254883 65.57104492 C-5.64820385 43.58570385 -5.64820385 43.58570385 0.25 37.6875 C1.42792698 29.71982412 1.2973397 21.59048389 1.21875 13.5546875 C1.25570883 10.16371487 1.63070137 7.01623015 2.25 3.6875 C1.26 3.6875 0.27 3.6875 -0.75 3.6875 C-0.976875 4.244375 -1.20375 4.80125 -1.4375 5.375 C-3.10302319 8.30949324 -5.37221176 10.30971176 -7.75 12.6875 C-8.08 13.6775 -8.41 14.6675 -8.75 15.6875 C-9.41 15.6875 -10.07 15.6875 -10.75 15.6875 C-10.76981934 16.33299805 -10.78963867 16.97849609 -10.81005859 17.64355469 C-10.90546328 20.57527221 -11.01507971 23.50629232 -11.125 26.4375 C-11.1559375 27.45328125 -11.186875 28.4690625 -11.21875 29.515625 C-11.25742188 30.4953125 -11.29609375 31.475 -11.3359375 32.484375 C-11.38306885 33.83547363 -11.38306885 33.83547363 -11.43115234 35.21386719 C-11.76137256 37.77572875 -12.45951673 39.46877437 -13.75 41.6875 C-14.95109216 37.40070923 -14.93388481 33.36249567 -14.9375 28.9375 C-14.94974609 28.1640625 -14.96199219 27.390625 -14.97460938 26.59375 C-14.9846228 22.61508211 -14.71022575 19.086789 -13.67578125 15.234375 C-12.3826539 11.87335403 -12.3826539 11.87335403 -13.75 9.6875 C-12.48572663 5.76825255 -10.25221375 4.60537896 -6.75 2.6875 C-5.76 1.82125 -5.76 1.82125 -4.75 0.9375 C-2.75 -0.3125 -2.75 -0.3125 0 0 Z " fill="#D1C0D1" transform="translate(243.75,6.3125)"/>
<path d="M0 0 C1.44795959 -0.00956978 1.44795959 -0.00956978 2.9251709 -0.01933289 C3.96886841 -0.02044571 5.01256592 -0.02155853 6.08789062 -0.02270508 C7.16735962 -0.02603348 8.24682861 -0.02936188 9.35900879 -0.03279114 C11.64884007 -0.03785905 13.93867874 -0.04019951 16.22851562 -0.04003906 C19.70260139 -0.04221037 23.1763617 -0.06032549 26.65039062 -0.0793457 C28.87955621 -0.08228283 31.1087233 -0.08426549 33.33789062 -0.08520508 C34.87914612 -0.09598335 34.87914612 -0.09598335 36.45153809 -0.10697937 C53.26673657 -0.05475029 53.26673657 -0.05475029 59.23632812 4.35620117 C69.91434531 19.18908885 70.53987363 39.53858871 71.24414062 57.14526367 C72.015 57.37600586 72.78585938 57.60674805 73.58007812 57.84448242 C74.58296875 58.17061523 75.58585937 58.49674805 76.61914062 58.83276367 C77.616875 59.14600586 78.61460937 59.45924805 79.64257812 59.78198242 C82.24414062 61.14526367 82.24414062 61.14526367 83.58789062 63.55151367 C84.41187217 66.80820262 84.37530321 69.80061783 84.24414062 73.14526367 C83.91414063 73.14526367 83.58414063 73.14526367 83.24414062 73.14526367 C83.24414062 71.16526367 83.24414062 69.18526367 83.24414062 67.14526367 C82.58414063 67.14526367 81.92414063 67.14526367 81.24414062 67.14526367 C80.91414063 66.48526367 80.58414063 65.82526367 80.24414062 65.14526367 C78.19924158 64.08934886 78.19924158 64.08934886 75.80664062 63.14526367 C73.01507089 61.998166 71.39795396 61.29907701 69.24414062 59.14526367 C69.03633522 56.81784313 68.92939207 54.4811659 68.86914062 52.14526367 C68.35226588 40.23941538 66.04374344 28.25371045 61.17773438 17.32885742 C59.87806024 14.28903381 59.01554746 11.14518359 58.15039062 7.95776367 C56.91604806 5.48907854 55.80165861 5.14555876 53.24414062 4.14526367 C50.45136485 3.83647359 50.45136485 3.83647359 47.36157227 3.87060547 C46.17676773 3.86107346 44.9919632 3.85154144 43.77125549 3.84172058 C42.49515915 3.84263199 41.21906281 3.8435434 39.90429688 3.84448242 C37.93293007 3.83805473 37.93293007 3.83805473 35.92173767 3.83149719 C33.14187584 3.82404396 30.36214104 3.82431967 27.58227539 3.82958984 C24.02685935 3.83538324 20.47196446 3.81845299 16.91663456 3.79524517 C13.51666704 3.77693652 10.1168134 3.7806937 6.71679688 3.78198242 C4.80568871 3.7681678 4.80568871 3.7681678 2.85597229 3.7540741 C1.66801559 3.76030289 0.4800589 3.76653168 -0.74389648 3.77294922 C-1.78662216 3.77231979 -2.82934784 3.77169037 -3.90367126 3.77104187 C-7.19714228 4.20316227 -9.07698597 5.21599597 -11.75585938 7.14526367 C-14.12511455 10.46222092 -14.29687051 14.1673602 -14.75585938 18.14526367 C-15.08585937 18.14526367 -15.41585937 18.14526367 -15.75585938 18.14526367 C-16.19950973 9.42013998 -16.19950973 9.42013998 -12.75585938 5.14526367 C-8.56767818 1.37590059 -5.59246033 0.02512637 0 0 Z " fill="#FDDACB" transform="translate(109.755859375,137.854736328125)"/>
<path d="M0 0 C0.69480469 0.32742187 1.38960937 0.65484375 2.10546875 0.9921875 C5.36368828 2.12662831 7.87449502 2.20056055 11.3125 2.125 C12.38113281 2.10695313 13.44976562 2.08890625 14.55078125 2.0703125 C15.76314453 2.03550781 15.76314453 2.03550781 17 2 C17 2.66 17 3.32 17 4 C21.62 3.67 26.24 3.34 31 3 C31 2.67 31 2.34 31 2 C49.23018582 1.30112664 67.44347142 0.89339622 85.6875 0.875 C86.56011475 0.87250244 87.43272949 0.87000488 88.33178711 0.86743164 C90.82930473 0.86154182 93.32669978 0.86302166 95.82421875 0.8671875 C96.93321785 0.86421158 96.93321785 0.86421158 98.06462097 0.86117554 C102.15930119 0.87950979 105.97411 1.30097306 110 2 C112.08188806 2.08932972 114.16619751 2.13061041 116.25 2.1328125 C118.09585693 2.13559204 118.09585693 2.13559204 119.97900391 2.13842773 C121.31933699 2.13427905 122.65966907 2.12979392 124 2.125 C125.02513702 2.12416916 125.02513702 2.12416916 126.07098389 2.12332153 C139.91473728 2.11035586 153.74709237 1.74390947 167.58203125 1.26806641 C168.36581146 1.24326706 169.14959167 1.21846771 169.9571228 1.19291687 C171.41954871 1.14663408 172.88183931 1.09573024 174.34390259 1.03913879 C178.36266913 0.91649432 182.05926525 1.20442925 186 2 C186 2.33 186 2.66 186 3 C163.64741545 3.67351867 141.29961047 4.10058524 118.9375 4.28125 C117.17962158 4.29557068 117.17962158 4.29557068 115.38623047 4.31018066 C105.69789665 4.38786452 96.00950741 4.45742746 86.32110596 4.52606201 C52.0628564 4.71416079 52.0628564 4.71416079 17.81103516 5.35157776 C15.8207719 5.40437266 13.83030575 5.44934004 11.83984375 5.49401855 C10.69128906 5.53015259 9.54273438 5.56628662 8.359375 5.60351562 C7.38452148 5.63175415 6.40966797 5.65999268 5.40527344 5.68908691 C2.74035966 5.85281884 2.74035966 5.85281884 0 8 C0 5.36 0 2.72 0 0 Z " fill="#B6B8B6" transform="translate(33,80)"/>
<path d="M0 0 C2.33811062 3.50716593 2.35945898 5.302161 2.59765625 9.46875 C2.67693359 10.76296875 2.75621094 12.0571875 2.83789062 13.390625 C2.91313663 14.76039605 2.9880043 16.13018794 3.0625 17.5 C3.21711559 20.15643089 3.37636247 22.81256307 3.53515625 25.46875 C3.61008301 26.74234375 3.68500977 28.0159375 3.76220703 29.328125 C4.07955988 34.22852213 4.51228657 39.11389335 5 44 C5.66 44 6.32 44 7 44 C7 44.66 7 45.32 7 46 C10.01716843 45.69165301 10.01716843 45.69165301 13 44 C14.15929788 41.06418547 14.62705566 38.12501639 15 35 C16.485 35.495 16.485 35.495 18 36 C18.31132201 40.51416908 18.2909305 43.25944964 16.625 47.5 C13.62551146 50.35665576 12.85739888 50.40792141 8.875 50.5 C4.33846154 50.33846154 4.33846154 50.33846154 2 48 C2 47.01 2 46.02 2 45 C1.34 45 0.68 45 0 45 C0 43.02 0 41.04 0 39 C-0.66 39 -1.32 39 -2 39 C-2.04949353 34.08871933 -2.08576382 29.17758434 -2.10986328 24.26611328 C-2.1199115 22.59584015 -2.13355236 20.92558458 -2.15087891 19.25537109 C-2.17517926 16.85249496 -2.18649487 14.44985173 -2.1953125 12.046875 C-2.20563507 11.30193787 -2.21595764 10.55700073 -2.22659302 9.78948975 C-2.22740368 6.03072358 -2.10367118 3.18826289 0 0 Z " fill="#90CF90" transform="translate(15,44)"/>
<path d="M0 0 C0.33 0 0.66 0 1 0 C1.125 5.75 1.125 5.75 0 8 C0.66 8 1.32 8 2 8 C3.07349957 11.54631428 3.20163283 14.92375368 3.31640625 18.6171875 C3.33723267 19.26309845 3.35805908 19.9090094 3.3795166 20.57449341 C3.44540308 22.67454641 3.50432125 24.77472037 3.5625 26.875 C3.58367889 27.58720703 3.60485779 28.29941406 3.62667847 29.03320312 C3.99290989 41.35715929 4.11754739 53.6705845 4 66 C4.66 66 5.32 66 6 66 C6.33 68.97 6.66 71.94 7 75 C5.02 75.495 5.02 75.495 3 76 C0.90525119 67.49389622 0.4350298 58.96279306 0 50.25 C-0.46143471 41.10324288 -1.18211702 32.12025357 -2.56787109 23.05419922 C-3.09852666 19.30363364 -3.30013608 15.72498168 -3.3125 11.9375 C-3.32925781 10.72964844 -3.34601563 9.52179688 -3.36328125 8.27734375 C-2.9711751 4.73995598 -2.11437676 2.83165901 0 0 Z " fill="#C15932" transform="translate(94,180)"/>
<path d="M0 0 C0.99 0 1.98 0 3 0 C5.62018794 4.52016715 6.32345225 7.61188379 6.125 12.8125 C5.99281133 16.71206579 6.00334119 20.44125959 6.48046875 24.30859375 C7.08681882 29.29667113 7.18371934 34.22928785 7.1875 39.25 C7.19974609 40.12140625 7.21199219 40.9928125 7.22460938 41.890625 C7.23486006 46.37359151 7.12770858 49.92960098 5 54 C5.66 54 6.32 54 7 54 C6.25 59.75 6.25 59.75 4 62 C3.34 58.04 2.68 54.08 2 50 C1.67 50 1.34 50 1 50 C1.00580078 49.05382812 1.01160156 48.10765625 1.01757812 47.1328125 C1.0608131 36.74577647 0.83321343 26.38105205 0.5 16 C0.45159828 14.43490276 0.40342026 12.86979859 0.35546875 11.3046875 C0.23954258 7.53637387 0.1206429 3.76816545 0 0 Z " fill="#93C493" transform="translate(21,16)"/>
<path d="M0 0 C0.99 0.33 1.98 0.66 3 1 C3.88984659 14.01400631 4.22202786 26.957044 4 40 C3.98743164 40.92329102 3.97486328 41.84658203 3.96191406 42.79785156 C3.91523036 45.53313547 3.83803888 48.26576384 3.75 51 C3.73598145 51.83063965 3.72196289 52.6612793 3.70751953 53.51708984 C3.49219439 58.69024954 2.60529862 61.07782943 -1 65 C-1.80222151 68.689748 -1.80222151 68.689748 -2 72 C-2.66 72 -3.32 72 -4 72 C-4.05406122 70.06280622 -4.09282025 68.12518079 -4.125 66.1875 C-4.14820313 65.10855469 -4.17140625 64.02960938 -4.1953125 62.91796875 C-4 60 -4 60 -2 57 C-1.79508566 54.52479268 -1.79508566 54.52479268 -1.9375 51.8125 C-2.00509314 48.3922873 -1.98391424 45.13739971 -1.5 41.75 C-0.91877438 38.02133893 -0.91877438 38.02133893 -1 34.3125 C-1 31 -1 31 -0.50610352 28.67895508 C0.06255479 25.66887907 0.11274329 22.88688809 0.09765625 19.82421875 C0.09443359 18.66728516 0.09121094 17.51035156 0.08789062 16.31835938 C0.07951172 15.12017578 0.07113281 13.92199219 0.0625 12.6875 C0.05798828 11.46998047 0.05347656 10.25246094 0.04882812 8.99804688 C0.03706578 5.99864774 0.02062826 2.99934911 0 0 Z " fill="#B2481F" transform="translate(171,184)"/>
<path d="M0 0 C0.33 0 0.66 0 1 0 C1.07347656 1.12148437 1.07347656 1.12148437 1.1484375 2.265625 C1.22320312 3.25046875 1.29796875 4.2353125 1.375 5.25 C1.44460937 6.22453125 1.51421875 7.1990625 1.5859375 8.203125 C1.82988197 10.93733151 1.82988197 10.93733151 3.00970459 12.88668823 C4.14559945 15.31071236 4.25345868 16.94362754 4.25878906 19.60986328 C4.26509338 20.51825958 4.27139771 21.42665588 4.27789307 22.36257935 C4.2738446 23.33863129 4.26979614 24.31468323 4.265625 25.3203125 C4.26753845 26.33415009 4.2694519 27.34798767 4.27142334 28.39254761 C4.27278406 30.5393702 4.26909552 32.68620104 4.26074219 34.83300781 C4.25010772 38.09198939 4.26060693 41.35041132 4.2734375 44.609375 C4.27211459 46.70052204 4.26954947 48.79166873 4.265625 50.8828125 C4.26967346 51.84671906 4.27372192 52.81062561 4.27789307 53.80374146 C4.23520492 60.08278639 3.45548182 65.8924746 2 72 C-0.31 72 -2.62 72 -5 72 C-5.25 68.8125 -5.25 68.8125 -5 65 C-4.3503125 64.2575 -3.700625 63.515 -3.03125 62.75 C-0.44065016 59.24272637 -0.32848173 56.3941208 -0.25 52.1875 C-0.20661499 50.96691895 -0.20661499 50.96691895 -0.16235352 49.72167969 C0.3147246 33.1617036 0.07836372 16.56488531 0 0 Z " fill="#A98475" transform="translate(174,184)"/>
<path d="M0 0 C1.15136948 -0.00953201 2.30273895 -0.01906403 3.48899841 -0.02888489 C4.73794388 -0.02797348 5.98688934 -0.02706207 7.27368164 -0.02612305 C8.55110733 -0.03040817 9.82853302 -0.0346933 11.14466858 -0.03910828 C13.85081667 -0.04486092 16.55658451 -0.04627621 19.26269531 -0.04101562 C22.73093282 -0.03522219 26.19863608 -0.05214587 29.66678524 -0.0753603 C32.9732469 -0.09363422 36.27967854 -0.08991242 39.58618164 -0.08862305 C40.83310287 -0.09783279 42.08002411 -0.10704254 43.36473083 -0.11653137 C44.51925247 -0.11030258 45.67377411 -0.10407379 46.86328125 -0.09765625 C48.38978554 -0.09860039 48.38978554 -0.09860039 49.9471283 -0.0995636 C52.49633789 0.2746582 52.49633789 0.2746582 54.30714417 1.65168762 C55.87698841 3.7941569 56.15395727 5.59812313 56.55883789 8.2121582 C56.9745414 10.83702895 57.33096871 12.94579904 58.52758789 15.32543945 C59.61342474 17.51024828 59.7900331 19.10176531 59.93383789 21.5246582 C60.22328634 24.8396621 60.85114713 27.51226202 62.12133789 30.5871582 C63.48711194 34.24991588 63.63177117 34.84564969 62.49633789 38.2746582 C54.84764152 27.98848033 53.23277711 14.6917671 51.49633789 2.2746582 C44.24683622 2.15882797 36.99753387 2.06997651 29.74729443 2.01559734 C26.38067643 1.98949805 23.01469124 1.95409752 19.6484375 1.89746094 C15.77855557 1.83696067 11.90957436 1.80848108 8.03930664 1.78637695 C6.82985886 1.76057053 5.62041107 1.7347641 4.37431335 1.70817566 C3.25337784 1.707798 2.13244232 1.70742035 0.97753906 1.70703125 C-0.01063309 1.69592819 -0.99880524 1.68482513 -2.016922 1.67338562 C-4.72086788 2.0499824 -4.72086788 2.0499824 -6.27763367 4.61018372 C-7.69157095 7.68303235 -8.66422966 10.70132549 -9.56616211 13.9621582 C-9.90776367 15.19063477 -10.24936523 16.41911133 -10.60131836 17.68481445 C-11.37296179 20.75468596 -11.9799865 23.78077605 -12.50366211 26.8996582 C-13.22725532 30.8471176 -14.26149869 32.74171803 -17.50366211 35.2746582 C-18.16366211 36.2646582 -18.82366211 37.2546582 -19.50366211 38.2746582 C-18.99790313 31.82623118 -18.99790313 31.82623118 -16.55053711 29.0949707 C-13.79372226 25.29645864 -13.53479189 21.91908768 -13.00366211 17.3371582 C-12.00730821 8.7839511 -9.99225924 0.04527429 0 0 Z " fill="#FF7A46" transform="translate(110.503662109375,146.725341796875)"/>
<path d="M0 0 C0.33 0 0.66 0 1 0 C1.0501123 0.67764404 1.10022461 1.35528809 1.15185547 2.0534668 C2.08392778 14.58783158 3.06776935 27.10853023 4.31762695 39.61547852 C4.94064818 45.99042055 5.37114676 52.36313011 5.65844727 58.76196289 C5.80312897 61.73959378 6.05057084 64.15171253 7 67 C7.03954234 69.33299825 7.04401732 71.66708189 7 74 C5.68 74 4.36 74 3 74 C0.63948467 64.34965794 0.31866494 54.69564073 -0.125 44.8125 C-0.16702545 43.92714569 -0.2090509 43.04179138 -0.25234985 42.12960815 C-0.75883463 31.44213819 -1.17870192 20.76360456 -1.1875 10.0625 C-1.18830566 9.12962158 -1.18911133 8.19674316 -1.18994141 7.2355957 C-1.13661308 1.13661308 -1.13661308 1.13661308 0 0 Z " fill="#D79274" transform="translate(90,182)"/>
<path d="M0 0 C0.6484375 1.7578125 0.6484375 1.7578125 1 4 C0.0390625 5.9296875 0.0390625 5.9296875 -1.375 7.875 C-5.51191777 13.5834843 -5.15784169 20.00948741 -5.16796875 26.7890625 C-5.17202225 27.63760803 -5.17607574 28.48615356 -5.18025208 29.3604126 C-5.18970298 32.11531344 -5.18964701 34.87008513 -5.1875 37.625 C-5.1882251 38.56329651 -5.1889502 39.50159302 -5.18969727 40.46832275 C-5.18850383 54.4502735 -4.68550131 68.25052598 -3.4375 82.1796875 C-2.92168288 88.12568876 -2.90463421 94.03566486 -3 100 C-3.99 100 -4.98 100 -6 100 C-9.13844806 83.78028945 -8.11921544 66.40262858 -8.17623901 49.94143677 C-8.18366677 47.96003762 -8.1942775 45.97864751 -8.20828247 43.99728394 C-8.28205562 32.47955688 -7.95209063 21.37078968 -6 10 C-5.34 10 -4.68 10 -4 10 C-3.8453125 9.195625 -3.8453125 9.195625 -3.6875 8.375 C-2.81907303 5.37497956 -1.44379704 2.7620465 0 0 Z " fill="#F3DBD1" transform="translate(93,156)"/>
<path d="M0 0 C0 0.66 0 1.32 0 2 C0.66 2 1.32 2 2 2 C2 3.98 2 5.96 2 8 C2.66 8 3.32 8 4 8 C4.66 9.32 5.32 10.64 6 12 C9.37826839 12.28521966 12.63305534 12.45764296 16 12 C18.02642108 9.67994969 18.02642108 9.67994969 19 7 C19.99 6.67 20.98 6.34 22 6 C22.47863079 9.41879139 22.76165157 11.93459454 20.6875 14.8359375 C18.8595205 16.57415015 17.25328559 17.86030729 15 19 C11.0625 18.875 11.0625 18.875 8 18 C8 17.34 8 16.68 8 16 C6.35 16 4.7 16 3 16 C0 10.25 0 10.25 0 8 C-2.74701777 9.52612098 -4.89582757 10.88951409 -7.0625 13.1875 C-9 15 -9 15 -13 15 C-13.41828808 10.73346158 -13.54738997 8.70838702 -10.875 5.25 C-4.16666667 0 -4.16666667 0 0 0 Z " fill="#CDF8CD" transform="translate(13,81)"/>
<path d="M0 0 C0.66 0.66 1.32 1.32 2 2 C1.53464844 2.36738281 1.06929687 2.73476562 0.58984375 3.11328125 C-1.56639831 5.6721631 -1.81973515 7.9144974 -2.4375 11.1875 C-3.60399259 16.73454455 -5.20641177 21.08713793 -8 26 C-8.66 26 -9.32 26 -10 26 C-11.03613832 38.19645736 -11.15685881 50.32833214 -11.125 62.5625 C-11.12411377 63.54213715 -11.12322754 64.52177429 -11.12231445 65.53109741 C-11.10448053 82.37129298 -10.75713133 99.17597795 -10 116 C-10.99 116 -11.98 116 -13 116 C-13.09267693 104.48226399 -13.16375345 92.96461667 -13.20724869 81.44658375 C-13.22812418 76.0982884 -13.25644144 70.75024814 -13.30175781 65.40209961 C-13.34521646 60.2409025 -13.36913739 55.07995078 -13.37950897 49.91858482 C-13.38690027 47.94937973 -13.40133375 45.98018807 -13.42292023 44.01108742 C-13.45195435 41.25294592 -13.45595599 38.49581854 -13.45410156 35.73754883 C-13.46848267 34.92330948 -13.48286377 34.10907013 -13.49768066 33.27015686 C-13.46061942 28.17647553 -12.65379366 25.80582935 -9 22 C-7.97008978 19.40542407 -7.97008978 19.40542407 -7.375 16.6875 C-7.13394531 15.73230469 -6.89289063 14.77710938 -6.64453125 13.79296875 C-6.24712091 12.07085726 -5.86595522 10.34478912 -5.51171875 8.61328125 C-4.80893493 5.30714171 -4.37974964 3.35741142 -1.875 1 C-1.25625 0.67 -0.6375 0.34 0 0 Z " fill="#FBF2EF" transform="translate(97,140)"/>
<path d="M0 0 C4.85403585 0.76657896 8.56105465 1.95808514 13 4 C13 4.66 13 5.32 13 6 C13.66 6 14.32 6 15 6 C15 7.98 15 9.96 15 12 C14.01 12.495 14.01 12.495 13 13 C13 11.35 13 9.7 13 8 C11.72125 7.855625 10.4425 7.71125 9.125 7.5625 C6.74307106 7.29357254 5.15547309 7.07773654 3 6 C3.01160156 7.28648437 3.02320313 8.57296875 3.03515625 9.8984375 C3.11867082 23.82840731 2.71628856 37.70647012 2.09179688 51.62182617 C2.02263961 53.41347767 2 55.20701427 2 57 C0.68 57 -0.64 57 -2 57 C-2.125 50.375 -2.125 50.375 -1 47 C-0.88574862 45.45102275 -0.82382085 43.89788234 -0.79467773 42.3449707 C-0.77473251 41.40422195 -0.75478729 40.46347321 -0.73423767 39.49421692 C-0.71752518 38.48163315 -0.70081268 37.46904938 -0.68359375 36.42578125 C-0.66281265 35.38681198 -0.64203156 34.34784271 -0.62062073 33.27738953 C-0.55519344 29.95582747 -0.49627179 26.63418584 -0.4375 23.3125 C-0.39430831 21.0618407 -0.35069381 18.81118948 -0.30664062 16.56054688 C-0.19951902 11.0404489 -0.09773984 5.52027163 0 0 Z " fill="#A29690" transform="translate(178,199)"/>
<path d="M0 0 C0.85991789 2.39587186 1.16500687 3.57794725 0.22265625 5.98828125 C-0.16019531 6.75527344 -0.54304688 7.52226562 -0.9375 8.3125 C-6.68004116 23.61269617 -2.83334616 43.2018819 -2.0625 59.25 C-1.9976944 60.60621964 -1.9976944 60.60621964 -1.93157959 61.98983765 C-1.80499921 64.58208723 -1.67151577 67.17387322 -1.53515625 69.765625 C-1.49653976 70.55215958 -1.45792328 71.33869415 -1.4181366 72.14906311 C-1.24472151 75.30659088 -1.0052764 77.9841708 0 81 C0.03954234 83.33299825 0.04401732 85.66708189 0 88 C-0.99 88 -1.98 88 -3 88 C-4.85782395 67.40417682 -6.31039967 46.87551153 -6.375 26.1875 C-6.38623901 24.91385086 -6.38623901 24.91385086 -6.39770508 23.61447144 C-6.41521272 21.21525321 -6.41103465 18.81719653 -6.3984375 16.41796875 C-6.40438934 15.70727234 -6.41034119 14.99657593 -6.41647339 14.26434326 C-6.34737311 9.43179661 -6.34737311 9.43179661 -4.58056641 7.2355957 C-4.05897949 6.82784912 -3.53739258 6.42010254 -3 6 C-1.95377125 4.02379014 -0.94560065 2.0262871 0 0 Z " fill="#E7BCAA" transform="translate(93,168)"/>
<path d="M0 0 C0.33 0.66 0.66 1.32 1 2 C0.21625 2.268125 -0.5675 2.53625 -1.375 2.8125 C-4.28114923 3.84814432 -4.28114923 3.84814432 -6 7 C-6.24433091 10.0564319 -6.24433091 10.0564319 -6.125 13.53125 C-6.10953125 14.81644531 -6.0940625 16.10164063 -6.078125 17.42578125 C-6.05324787 18.783876 -6.02719338 20.14194966 -6 21.5 C-5.9468081 24.15642869 -5.90697873 26.81185063 -5.875 29.46875 C-5.85179687 30.64888672 -5.82859375 31.82902344 -5.8046875 33.04492188 C-6 36 -6 36 -8 39 C-8.69221635 35.67147034 -9.35097636 32.33720938 -10 29 C-10.19078125 28.04996094 -10.3815625 27.09992187 -10.578125 26.12109375 C-14.23731227 6.49216773 -14.23731227 6.49216773 -10 0 C-6.63317595 -1.56316831 -3.51654163 -0.85959906 0 0 Z " fill="#7EDA7E" transform="translate(17,7)"/>
<path d="M0 0 C0.70748383 -0.00671722 1.41496765 -0.01343445 2.14389038 -0.02035522 C4.48865735 -0.03939348 6.83313901 -0.04326223 9.17797852 -0.04541016 C10.80461242 -0.05183384 12.43124515 -0.05856187 14.05787659 -0.06558228 C17.47008951 -0.07756946 20.88220109 -0.08126161 24.29443359 -0.08007812 C28.67074337 -0.0798748 33.0464047 -0.10718363 37.42256069 -0.14162254 C40.78285213 -0.16384 44.14298621 -0.16791727 47.50334358 -0.16685867 C49.11692605 -0.16922217 50.73051238 -0.17808765 52.34402275 -0.19352341 C54.59960455 -0.21308137 56.85377129 -0.20738723 59.109375 -0.1953125 C60.39351791 -0.19816254 61.67766083 -0.20101257 63.00071716 -0.20394897 C66.11938477 0.29052734 66.11938477 0.29052734 68.07704163 2.18026733 C69.11938477 4.29052734 69.11938477 4.29052734 68.80688477 6.54052734 C68.58000977 7.11802734 68.35313477 7.69552734 68.11938477 8.29052734 C67.62438477 5.81552734 67.62438477 5.81552734 67.11938477 3.29052734 C58.11357006 3.15123368 49.10812864 3.044759 40.10146999 2.97965431 C35.91882088 2.94839986 31.73691113 2.90603735 27.5546875 2.83789062 C23.51514024 2.77248399 19.47630204 2.73677705 15.43626595 2.72126389 C13.89846705 2.71021534 12.36070505 2.68863911 10.82320976 2.656147 C1.07948922 2.17540236 1.07948922 2.17540236 -7.38037109 6.32714844 C-8.20545166 7.30506348 -9.03053223 8.28297852 -9.88061523 9.29052734 C-8.99545785 1.32411087 -8.03624746 0.04773852 0 0 Z " fill="#DE5018" transform="translate(103.880615234375,178.70947265625)"/>
<path d="M0 0 C2.01791789 3.29925738 2.1114395 5.33335602 1.5625 9.125 C0.9303193 12.69146252 0.9303193 12.69146252 2 16 C1.0625 18.125 1.0625 18.125 0 20 C0.66 20.33 1.32 20.66 2 21 C1.814375 21.515625 1.62875 22.03125 1.4375 22.5625 C0.83905509 25.15140958 0.83905509 25.15140958 1.5 28.375 C1.99019389 31.92890573 1.7633835 34.52236406 1 38 C-0.32 38 -1.64 38 -3 38 C-4.55541955 34.8891609 -4.14682995 31.5992624 -4.125 28.1875 C-4.12089111 27.42719482 -4.11678223 26.66688965 -4.11254883 25.88354492 C-3.91833134 5.96267813 -3.91833134 5.96267813 0 0 Z " fill="#E4D3E4" transform="translate(242,46)"/>
<path d="M0 0 C1.80152779 0.0001133 1.80152779 0.0001133 3.63945007 0.00022888 C5.58486443 0.00797081 5.58486443 0.00797081 7.56958008 0.01586914 C8.91050667 0.01773462 10.25143394 0.01915791 11.59236145 0.02015686 C15.11870206 0.02397183 18.64500137 0.0337934 22.17132568 0.04486084 C25.77086834 0.05509689 29.37041768 0.05965918 32.9699707 0.06469727 C40.03053446 0.07541659 47.09107019 0.09248077 54.15161133 0.11352539 C54.15161133 0.44352539 54.15161133 0.77352539 54.15161133 1.11352539 C53.42355789 1.11939163 52.69550446 1.12525787 51.94538879 1.13130188 C45.07430575 1.18927623 38.20349953 1.26138015 31.33273792 1.3492403 C27.80062467 1.39391203 24.26862589 1.43317477 20.73632812 1.45996094 C16.67263811 1.49101619 12.60956591 1.54580373 8.54614258 1.60180664 C6.64902275 1.61139153 6.64902275 1.61139153 4.71357727 1.62117004 C3.53273056 1.6409642 2.35188385 1.66075836 1.13525391 1.68115234 C0.0982283 1.6922554 -0.9387973 1.70335846 -2.00724792 1.71479797 C-5.57384177 2.21533592 -8.28270311 3.54783983 -10.84838867 6.11352539 C-11.1799069 7.98649781 -11.505769 9.86069251 -11.79931641 11.73999023 C-14.74201623 30.54863072 -14.74201623 30.54863072 -19.97729492 34.87133789 C-20.59475586 35.28125977 -21.2122168 35.69118164 -21.84838867 36.11352539 C-21.72439736 31.24404832 -21.37408905 27.44170969 -18.47338867 23.42602539 C-15.19941496 18.78242371 -14.59478783 13.81491594 -13.71948242 8.28540039 C-12.74260886 4.72835406 -11.72548393 3.36376749 -8.84838867 1.11352539 C-5.64491408 0.04570053 -3.36651045 -0.00705767 0 0 Z " fill="#FECAB5" transform="translate(108.848388671875,140.886474609375)"/>
<path d="M0 0 C1.02467377 -0.00761353 2.04934753 -0.01522705 3.10507202 -0.02307129 C5.26842829 -0.03384397 7.43183645 -0.03673696 9.59521484 -0.03222656 C12.86777049 -0.03125907 16.1379414 -0.07281514 19.41015625 -0.1171875 C42.1477387 -0.24912285 42.1477387 -0.24912285 50.2734375 5.46875 C51.08837891 7.63867188 51.08837891 7.63867188 51.2734375 9.46875 C50.71681931 8.99789978 50.16020111 8.52704956 49.5867157 8.04193115 C42.70904398 3.36466254 32.47905262 4.17128743 24.47265625 4.203125 C22.85264458 4.20025482 22.85264458 4.20025482 21.1999054 4.19732666 C18.93689742 4.19597562 16.67388141 4.1995958 14.41088867 4.20800781 C10.95278605 4.21877538 7.49519666 4.20804857 4.03710938 4.1953125 C1.82812386 4.19663326 -0.38086134 4.19919393 -2.58984375 4.203125 C-4.13216423 4.19705231 -4.13216423 4.19705231 -5.7056427 4.19085693 C-10.77585638 4.22397778 -14.9814005 4.44336984 -19.7265625 6.46875 C-15.13094062 -0.42468281 -7.5413475 0.00156105 0 0 Z " fill="#FFEDE6" transform="translate(118.7265625,134.53125)"/>
<path d="M0 0 C1.16082596 0.00022659 2.32165192 0.00045319 3.51765442 0.00068665 C4.76052719 0.0161705 6.00339996 0.03165436 7.28393555 0.04760742 C9.20437935 0.05397469 9.20437935 0.05397469 11.16362 0.06047058 C14.55528563 0.07188481 17.94656136 0.10132163 21.33807373 0.13458252 C24.80369799 0.16535782 28.26938569 0.17899178 31.73510742 0.1940918 C38.52629159 0.22715425 45.3171876 0.27734949 52.1081543 0.34057617 C52.1081543 0.67057617 52.1081543 1.00057617 52.1081543 1.34057617 C51.04699654 1.34937553 51.04699654 1.34937553 49.96440125 1.35835266 C43.29870498 1.41624718 36.63333012 1.48830471 29.9679594 1.57629108 C26.5411635 1.62102645 23.11448735 1.66027505 19.6875 1.68701172 C15.74803119 1.71798664 11.80906779 1.77277715 7.86987305 1.82885742 C6.63855148 1.83524734 5.40722992 1.84163727 4.13859558 1.84822083 C2.99763931 1.86801498 1.85668304 1.88780914 0.68115234 1.90820312 C-0.3247847 1.91930618 -1.33072174 1.93040924 -2.36714172 1.94184875 C-5.27146786 2.40053004 -6.13711899 3.0344698 -7.8918457 5.34057617 C-10.79175572 11.29505808 -11.48506196 17.81394469 -12.16918945 24.32495117 C-13.01943189 27.8729899 -14.48544012 29.64446739 -16.8918457 32.34057617 C-17.60070465 33.65196521 -18.28641022 34.97834634 -18.8918457 36.34057617 C-19.8918457 34.34057617 -19.8918457 34.34057617 -18.7824707 30.66479492 C-18.24162879 29.11710053 -17.6943462 27.57164707 -17.1418457 26.02807617 C-14.79144196 19.32308484 -12.98219485 12.86571869 -11.82543945 5.84448242 C-9.85348634 0.55568766 -5.13221059 -0.03354386 0 0 Z " fill="#FF8657" transform="translate(109.891845703125,145.659423828125)"/>
<path d="M0 0 C0.98790024 -0.00637985 1.97580048 -0.0127597 2.99363708 -0.01933289 C4.59212242 -0.02100212 4.59212242 -0.02100212 6.22290039 -0.02270508 C7.3189711 -0.02603348 8.41504181 -0.02936188 9.54432678 -0.03279114 C11.86353129 -0.03785614 14.18274309 -0.04019959 16.50195312 -0.04003906 C20.05293763 -0.04222548 23.6036115 -0.06038574 27.15454102 -0.0793457 C29.40649308 -0.08227969 31.65844662 -0.08426445 33.91040039 -0.08520508 C34.97403305 -0.09239059 36.03766571 -0.09957611 37.13352966 -0.10697937 C38.12458206 -0.10390274 39.11563446 -0.10082611 40.13671875 -0.09765625 C41.4421891 -0.09979378 41.4421891 -0.09979378 42.77403259 -0.10197449 C45.31048353 0.16385895 46.94471499 0.8683304 49.13305664 2.14526367 C48.49936157 2.15112991 47.8656665 2.15699615 47.21276855 2.16304016 C40.5934615 2.22717183 33.97463176 2.31164225 27.35571289 2.40771484 C24.88832915 2.4408873 22.42087093 2.46894293 19.95336914 2.49169922 C16.39835998 2.5253858 12.84402866 2.57771069 9.28930664 2.63354492 C7.64508728 2.64312981 7.64508728 2.64312981 5.96765137 2.65290833 C-0.32059115 2.77253685 -5.16637144 3.417121 -10.86694336 6.14526367 C-14.00701454 9.79179795 -14.40505576 13.43401018 -14.86694336 18.14526367 C-15.19694336 18.14526367 -15.52694336 18.14526367 -15.86694336 18.14526367 C-16.31059372 9.42013998 -16.31059372 9.42013998 -12.86694336 5.14526367 C-8.63507231 1.33657973 -5.64594855 0.02475074 0 0 Z " fill="#FFE0D4" transform="translate(109.866943359375,137.854736328125)"/>
<path d="M0 0 C0.33 0 0.66 0 1 0 C1.81597574 7.6295399 2.15961008 15.16524593 2.16796875 22.8359375 C2.17129715 23.91831696 2.17462555 25.00069641 2.17805481 26.11587524 C2.18307993 28.3830727 2.18546452 30.65027745 2.18530273 32.91748047 C2.18750732 36.3865148 2.20575889 39.85523973 2.22460938 43.32421875 C2.22754062 45.53645725 2.22952721 47.74869725 2.23046875 49.9609375 C2.23765427 50.99431244 2.24483978 52.02768738 2.25224304 53.09237671 C2.24916641 54.05753204 2.24608978 55.02268738 2.24291992 56.01708984 C2.24434494 56.86105316 2.24576996 57.70501648 2.24723816 58.57455444 C1.96613287 61.33224187 1.13288943 63.48237041 0 66 C-0.66 66 -1.32 66 -2 66 C-2 67.98 -2 69.96 -2 72 C-2.99 72 -3.98 72 -5 72 C-5.25 68.8125 -5.25 68.8125 -5 65 C-4.3503125 64.2575 -3.700625 63.515 -3.03125 62.75 C-0.44065016 59.24272637 -0.32848173 56.3941208 -0.25 52.1875 C-0.20661499 50.96691895 -0.20661499 50.96691895 -0.16235352 49.72167969 C0.3147246 33.1617036 0.07836372 16.56488531 0 0 Z " fill="#B47156" transform="translate(174,184)"/>
<path d="M0 0 C0.33 0 0.66 0 1 0 C1.88984659 13.01400631 2.22202786 25.957044 2 39 C1.98743164 39.92329102 1.97486328 40.84658203 1.96191406 41.79785156 C1.91523036 44.53313547 1.83803888 47.26576384 1.75 50 C1.73598145 50.83063965 1.72196289 51.6612793 1.70751953 52.51708984 C1.49219439 57.69024954 0.60529862 60.07782943 -3 64 C-3.80222151 67.689748 -3.80222151 67.689748 -4 71 C-4.66 71 -5.32 71 -6 71 C-6.390625 65.04296875 -6.390625 65.04296875 -6 63 C-5.02003052 62.40312378 -5.02003052 62.40312378 -4.02026367 61.79418945 C-1.70818752 60.10511614 -1.70818752 60.10511614 -1.41040039 57.015625 C-1.36906982 55.77296875 -1.32773926 54.5303125 -1.28515625 53.25 C-1.24347069 52.20912231 -1.24347069 52.20912231 -1.20094299 51.1472168 C-1.11258183 48.7650115 -1.0552606 46.38319283 -1 44 C-0.94699999 42.18878596 -0.89343074 40.37758851 -0.83935547 38.56640625 C-0.6750542 32.71148875 -0.55448673 26.8560215 -0.4375 21 C-0.39418062 18.95311862 -0.35056274 16.90624354 -0.30664062 14.859375 C-0.2009944 9.90631565 -0.09935771 4.95318932 0 0 Z " fill="#B15A38" transform="translate(173,185)"/>
<path d="M0 0 C1.11375 0.3403125 1.11375 0.3403125 2.25 0.6875 C2.25 1.0175 2.25 1.3475 2.25 1.6875 C1.156875 1.914375 0.06375 2.14125 -1.0625 2.375 C-4.79441849 3.34094941 -4.79441849 3.34094941 -6.5625 5.9375 C-8.97719999 11.52943682 -10.80128708 16.9911196 -10.99609375 23.09375 C-11.02896484 23.92003906 -11.06183594 24.74632813 -11.09570312 25.59765625 C-11.1568963 27.32408488 -11.21418884 29.05065617 -11.26757812 30.77734375 C-11.30173828 31.60363281 -11.33589844 32.42992187 -11.37109375 33.28125 C-11.3961499 34.03083984 -11.42120605 34.78042969 -11.44702148 35.55273438 C-11.78481113 37.93277678 -12.57197613 39.60658962 -13.75 41.6875 C-14.95109216 37.40070923 -14.93388481 33.36249567 -14.9375 28.9375 C-14.94974609 28.1640625 -14.96199219 27.390625 -14.97460938 26.59375 C-14.9846228 22.61508211 -14.71022575 19.086789 -13.67578125 15.234375 C-12.3826539 11.87335403 -12.3826539 11.87335403 -13.75 9.6875 C-12.48572663 5.76825255 -10.25221375 4.60537896 -6.75 2.6875 C-5.76 1.82125 -5.76 1.82125 -4.75 0.9375 C-2.75 -0.3125 -2.75 -0.3125 0 0 Z " fill="#C9BDC9" transform="translate(243.75,6.3125)"/>
<path d="M0 0 C0.33 0 0.66 0 1 0 C3.04528428 12.43126684 4.48167015 24.38737805 4 37 C4.66 37 5.32 37 6 37 C5.25 42.75 5.25 42.75 3 45 C2.34 41.04 1.68 37.08 1 33 C0.67 33 0.34 33 0 33 C0 22.11 0 11.22 0 0 Z " fill="#77E277" transform="translate(22,33)"/>
<path d="M0 0 C2.36418922 3.54628382 2.37696091 5.45954208 2.6328125 9.6796875 C2.67437469 10.32946564 2.71593689 10.97924377 2.75875854 11.64871216 C2.88924215 13.72372204 3.00708655 15.79924192 3.125 17.875 C3.21145126 19.26437219 3.29868239 20.65369609 3.38671875 22.04296875 C4.05686362 32.8810641 4.05686362 32.8810641 4 38 C3.01 37.67 2.02 37.34 1 37 C0.80083984 35.28103516 0.80083984 35.28103516 0.59765625 33.52734375 C0.41931812 31.99739032 0.24093004 30.46744271 0.0625 28.9375 C-0.02451172 28.18533203 -0.11152344 27.43316406 -0.20117188 26.65820312 C-0.6083892 23.17423271 -1.04342419 19.70520478 -1.5546875 16.234375 C-1.92348232 13.55575997 -2.16327321 11.01136417 -2.1875 8.3125 C-2.20167969 7.58675781 -2.21585938 6.86101563 -2.23046875 6.11328125 C-1.96788994 3.70556704 -1.19356383 2.08991611 0 0 Z " fill="#76E476" transform="translate(15,44)"/>
<path d="M0 0 C0.33 0 0.66 0 1 0 C2.65406454 10.23420894 3.51706787 20.34805558 4.0625 30.6875 C4.1785573 32.84529725 4.296437 35.00293348 4.41929626 37.16035461 C4.52883731 39.08802019 4.63192596 41.01604929 4.73461914 42.9440918 C4.8839314 46.04007003 4.8839314 46.04007003 6 49 C6.03954234 51.33299825 6.04401732 53.66708189 6 56 C5.34 56 4.68 56 4 56 C3.95101562 55.43152344 3.90203125 54.86304688 3.8515625 54.27734375 C3.77679688 53.50519531 3.70203125 52.73304688 3.625 51.9375 C3.55539063 51.18339844 3.48578125 50.42929688 3.4140625 49.65234375 C3.05402442 46.89031722 3.05402442 46.89031722 2 43.90625 C0.51270487 38.88747477 0.53195537 33.76210754 0.375 28.5625 C0.33705322 27.50804687 0.29910645 26.45359375 0.26000977 25.3671875 C-0.02393943 16.90923591 -0.11199535 8.46187106 0 0 Z " fill="#CF8163" transform="translate(91,200)"/>
<path d="M0 0 C1.68584312 3.65074218 2.2107461 6.29624166 1.9765625 10.30078125 C1.925 11.27724609 1.8734375 12.25371094 1.8203125 13.25976562 C1.75585938 14.26716797 1.69140625 15.27457031 1.625 16.3125 C1.56828125 17.33923828 1.5115625 18.36597656 1.453125 19.42382812 C1.31213091 21.94997226 1.16076818 24.47505001 1 27 C0.34 27.33 -0.32 27.66 -1 28 C-1.02716089 24.97910522 -1.04691657 21.95845871 -1.0625 18.9375 C-1.07087891 18.08994141 -1.07925781 17.24238281 -1.08789062 16.36914062 C-1.10683006 11.4638278 -0.83326345 6.83555245 0 2 C-0.99 2 -1.98 2 -3 2 C-3.226875 2.556875 -3.45375 3.11375 -3.6875 3.6875 C-5.3592504 6.63296499 -7.58281215 8.64324185 -10 11 C-10.66 11.99 -11.32 12.98 -12 14 C-12 8.84259829 -10.77175617 4.83081471 -7.125 1.0625 C-4.58518887 -0.20740557 -2.80402402 -0.23366867 0 0 Z " fill="#E3D1E3" transform="translate(246,8)"/>
<path d="M0 0 C0.66 0.66 1.32 1.32 2 2 C1.64930725 3.83843994 1.64930725 3.83843994 1 6 C0.83689581 7.52511186 0.7099722 9.05434332 0.61108398 10.58496094 C0.55109726 11.48559265 0.49111053 12.38622437 0.42930603 13.31414795 C0.36884598 14.27782288 0.30838593 15.2414978 0.24609375 16.234375 C0.18092056 17.22753723 0.11574738 18.22069946 0.04859924 19.24395752 C-0.15853104 22.41242613 -0.36057816 25.58119562 -0.5625 28.75 C-0.70213902 30.89976137 -0.84210901 33.04950126 -0.98242188 35.19921875 C-1.32545376 40.46590283 -1.66431409 45.73284288 -2 51 C-4.51206686 48.48793314 -4.25672071 47.63905314 -4.265625 44.16796875 C-4.26820313 43.20439453 -4.27078125 42.24082031 -4.2734375 41.24804688 C-4.26570312 40.23806641 -4.25796875 39.22808594 -4.25 38.1875 C-4.25773438 37.18912109 -4.26546875 36.19074219 -4.2734375 35.16210938 C-4.27085937 34.19466797 -4.26828125 33.22722656 -4.265625 32.23046875 C-4.26336914 31.34770264 -4.26111328 30.46493652 -4.25878906 29.55541992 C-3.97241714 26.72763229 -3.07354639 24.61893269 -2 22 C-1.65940578 19.74034164 -1.65940578 19.74034164 -1.62109375 17.4609375 C-1.58693359 16.63335937 -1.55277344 15.80578125 -1.51757812 14.953125 C-1.49115234 14.10234375 -1.46472656 13.2515625 -1.4375 12.375 C-1.37749176 10.67434106 -1.31384279 8.97380566 -1.24609375 7.2734375 C-1.21020142 6.15074463 -1.21020142 6.15074463 -1.17358398 5.00537109 C-1 3 -1 3 0 0 Z M-7 50 C-6.01 50.495 -6.01 50.495 -5 51 C-5.99 51.495 -5.99 51.495 -7 52 C-7 51.34 -7 50.68 -7 50 Z " fill="#D1C4D1" transform="translate(233,22)"/>
<path d="M0 0 C0.773422 2.74806746 1.12809726 5.19483074 1.1328125 8.046875 C1.13410156 8.81 1.13539063 9.573125 1.13671875 10.359375 C1.13285156 11.14828125 1.12898437 11.9371875 1.125 12.75 C1.12886719 13.5234375 1.13273438 14.296875 1.13671875 15.09375 C1.12822581 20.15554418 0.68487466 24.98610419 0 30 C-0.18197932 32.18627939 -0.34961221 34.37382059 -0.5 36.5625 C-0.83125399 41.08437985 -1.27167098 45.5259789 -2 50 C-2.33 50 -2.66 50 -3 50 C-3.23632722 37.86853615 -2.92412397 25.85620485 -2.0625 13.75 C-1.97564941 12.50637695 -1.88879883 11.26275391 -1.79931641 9.98144531 C-1.13075701 1.13075701 -1.13075701 1.13075701 0 0 Z " fill="#E4D5E4" transform="translate(234,27)"/>
<path d="M0 0 C0.66 0 1.32 0 2 0 C3.39221857 2.78443713 3.26945276 5.26784075 3.4375 8.375 C3.80381706 14.13563111 4.56435288 19.68108594 5.58984375 25.35546875 C6.09880598 28.63706333 6.15051002 31.68877956 6 35 C6.78375 35.144375 7.5675 35.28875 8.375 35.4375 C11 36 11 36 13 37 C12.67 37.66 12.34 38.32 12 39 C7.545 37.02 7.545 37.02 3 35 C0.80851064 9.89361702 0.80851064 9.89361702 0 0 Z " fill="#F8E9E2" transform="translate(177,160)"/>
<path d="M0 0 C0.66 0.66 1.32 1.32 2 2 C1.53464844 2.36738281 1.06929687 2.73476562 0.58984375 3.11328125 C-1.56639831 5.6721631 -1.81973515 7.9144974 -2.4375 11.1875 C-3.60399259 16.73454455 -5.20641177 21.08713793 -8 26 C-8.66 26 -9.32 26 -10 26 C-10.33 30.95 -10.66 35.9 -11 41 C-11.33 41 -11.66 41 -12 41 C-12.66415367 32.80877135 -11.53026621 26.85366063 -8.296875 19.32421875 C-6.55973327 14.87148499 -5.70337677 10.3749117 -4.87109375 5.6796875 C-3.85587718 2.5566446 -2.78005441 1.64870302 0 0 Z " fill="#FEECE5" transform="translate(97,140)"/>
<path d="M0 0 C0.99 0.495 0.99 0.495 2 1 C2.45703125 3.046875 2.45703125 3.046875 2.8125 5.75 C3.74925384 11.49792154 5.58918339 16.57711167 7.78125 21.95703125 C11.47214187 31.17243114 11.47214187 31.17243114 10 35 C2.86398256 25.4032869 -0.37709055 11.83346051 0 0 Z " fill="#FE6C33" transform="translate(163,150)"/>
<path d="M0 0 C0.99 0 1.98 0 3 0 C4.20171679 2.40343358 4.20334932 4.08523677 4.31640625 6.76953125 C4.35838135 7.73560303 4.40035645 8.7016748 4.44360352 9.69702148 C4.50245728 11.23918335 4.50245728 11.23918335 4.5625 12.8125 C4.6049585 13.85027588 4.64741699 14.88805176 4.69116211 15.95727539 C4.97630042 23.30948352 5.12710338 30.64212677 5 38 C4.67 38 4.34 38 4 38 C2.01756666 25.33517892 0.48702755 12.8138628 0 0 Z " fill="#86D086" transform="translate(21,16)"/>
<path d="M0 0 C1.670625 0.061875 1.670625 0.061875 3.375 0.125 C3.375 0.455 3.375 0.785 3.375 1.125 C2.281875 1.310625 1.18875 1.49625 0.0625 1.6875 C-3.82720118 2.74563794 -3.82720118 2.74563794 -5.203125 6.046875 C-7.38277422 11.70872659 -8.43115272 17.72378757 -9.64257812 23.65039062 C-10.7405588 28.62861367 -11.45616017 31.85125898 -15.625 35.125 C-16.285 36.115 -16.945 37.105 -17.625 38.125 C-17.11924102 31.67657298 -17.11924102 31.67657298 -14.671875 28.9453125 C-11.91506015 25.14680043 -11.65612978 21.76942947 -11.125 17.1875 C-10.28945901 10.01479247 -8.72562251 0.30088353 0 0 Z " fill="#F97440" transform="translate(108.625,146.875)"/>
<path d="M0 0 C4.84659077 0.59104765 8.60748167 1.97944157 13 4 C13 4.66 13 5.32 13 6 C13.66 6 14.32 6 15 6 C15 7.98 15 9.96 15 12 C14.01 12.495 14.01 12.495 13 13 C13 11.35 13 9.7 13 8 C12.22914063 7.96261719 11.45828125 7.92523438 10.6640625 7.88671875 C9.66117188 7.82097656 8.65828125 7.75523437 7.625 7.6875 C6.62726563 7.62949219 5.62953125 7.57148438 4.6015625 7.51171875 C3.74304688 7.34285156 2.88453125 7.17398438 2 7 C0 4 0 4 0 0 Z " fill="#BBAEA8" transform="translate(178,199)"/>
<path d="M0 0 C0.87750218 2.43316845 1.13905236 3.62237654 0.23144531 6.0871582 C-0.14915039 6.87952881 -0.52974609 7.67189941 -0.921875 8.48828125 C-4.2451114 17.08665495 -3.42413091 26.1203723 -3.25 35.1875 C-3.22989843 37.01625642 -3.21165415 38.84503424 -3.1953125 40.67382812 C-3.15161983 45.11642185 -3.08279646 49.55797004 -3 54 C-3.33 54 -3.66 54 -4 54 C-4.92594454 45.81077418 -5.21649974 37.65583992 -5.24023438 29.41992188 C-5.25002057 27.37069279 -5.28120264 25.32243648 -5.3125 23.2734375 C-5.38227311 14.60084979 -4.89196259 7.33794389 0 0 Z " fill="#E1AB93" transform="translate(93,168)"/>
<path d="M0 0 C1.52614846 3.05229692 0.96753407 6.22165008 0.875 9.5625 C0.74259502 16.79181187 1.54164599 23.49881374 3.10888672 30.55297852 C3.48975875 32.3529339 3.75383792 34.17673175 4 36 C3.34 36.99 2.68 37.98 2 39 C1.30778365 35.67147034 0.64902364 32.33720938 0 29 C-0.19078125 28.04996094 -0.3815625 27.09992187 -0.578125 26.12109375 C-4.16564374 6.87661823 -4.16564374 6.87661823 0 0 Z " fill="#90C790" transform="translate(7,7)"/>
<path d="M0 0 C3.2761872 3.2761872 3.45991482 6.33670336 3.81640625 10.73828125 C4.04258891 13.52465913 4.50638862 16.24987945 5 19 C3.35 19 1.7 19 0 19 C-0.93983832 15.03179378 -1.13421572 11.32334639 -1.125 7.25 C-1.12757813 6.10015625 -1.13015625 4.9503125 -1.1328125 3.765625 C-1 1 -1 1 0 0 Z " fill="#CCCCCC" transform="translate(198,215)"/>
<path d="M0 0 C0.75 1.625 0.75 1.625 1 4 C-0.3125 7.25 -0.3125 7.25 -3 10 C-6.39983096 10.63507309 -9.59733026 10.61651159 -13 10 C-13.66 9.34 -14.32 8.68 -15 8 C-15 7.01 -15 6.02 -15 5 C-15.66 5 -16.32 5 -17 5 C-17 3.68 -17 2.36 -17 1 C-16.01 1.33 -15.02 1.66 -14 2 C-12.8125 4.5625 -12.8125 4.5625 -12 7 C-9.03 7 -6.06 7 -3 7 C-2.690625 6.030625 -2.38125 5.06125 -2.0625 4.0625 C-1 1 -1 1 0 0 Z " fill="#A7F3A7" transform="translate(32,84)"/>
<path d="M0 0 C1.60433809 0.47859241 3.20846416 0.95789558 4.8125 1.4375 C6.15248047 1.83775391 6.15248047 1.83775391 7.51953125 2.24609375 C12.94063494 3.89376778 12.94063494 3.89376778 14.1875 6.125 C15.14531259 9.51418301 15.13746202 12.49471861 15 16 C14.67 16 14.34 16 14 16 C14 14.02 14 12.04 14 10 C13.34 10 12.68 10 12 10 C11.67 9.34 11.34 8.68 11 8 C8.74734212 6.95081688 6.44989369 6.08198186 4.12890625 5.1953125 C1.62567586 3.78982902 1.01026786 2.63884173 0 0 Z " fill="#D6D4D3" transform="translate(179,195)"/>
<path d="M0 0 C0.33 0 0.66 0 1 0 C1.19528933 4.97987802 0.89074169 9.74142383 0.25 14.6875 C0.11078125 15.76386719 -0.0284375 16.84023437 -0.171875 17.94921875 C-1.1243025 21.45792571 -2.60513498 23.30577685 -5 26 C-5.70885894 27.31138904 -6.39456452 28.63777017 -7 30 C-8 28 -8 28 -6.85546875 24.21875 C-6.30499181 22.6438956 -5.74866664 21.0710771 -5.1875 19.5 C-2.94429841 13.03263771 -1.09297179 6.77642511 0 0 Z " fill="#FC8C61" transform="translate(98,152)"/>
<path d="M0 0 C0.99 0.33 1.98 0.66 3 1 C2.38921926 5.15330902 1.37826455 8.51187867 -1 12 C-4.4375 13.125 -4.4375 13.125 -8 13 C-11.22517896 10.87817174 -11.88130022 9.51436571 -12.75 5.75 C-12.8325 4.8425 -12.915 3.935 -13 3 C-12.34 3 -11.68 3 -11 3 C-10.67 4.98 -10.34 6.96 -10 9 C-9.34 9 -8.68 9 -8 9 C-8 9.66 -8 10.32 -8 11 C-4.98283157 10.69165301 -4.98283157 10.69165301 -2 9 C-0.84070212 6.06418547 -0.37294434 3.12501639 0 0 Z " fill="#8DF58D" transform="translate(30,79)"/>
<path d="M0 0 C0 0.66 0 1.32 0 2 C0.66 2 1.32 2 2 2 C2 3.32 2 4.64 2 6 C0.741875 6.103125 -0.51625 6.20625 -1.8125 6.3125 C-5.30801596 6.7302418 -6.66437123 7.31402691 -9 10 C-10.32 10 -11.64 10 -13 10 C-13 8 -13 8 -10.875 5.5625 C-7.72416695 2.7541488 -4.39444325 0 0 0 Z " fill="#C5CAC5" transform="translate(13,81)"/>
<path d="M0 0 C0.33 0 0.66 0 1 0 C1.02899599 3.77081722 1.04679729 7.54160583 1.0625 11.3125 C1.07087891 12.38435547 1.07925781 13.45621094 1.08789062 14.56054688 C1.09111328 15.58857422 1.09433594 16.61660156 1.09765625 17.67578125 C1.10289307 18.62364502 1.10812988 19.57150879 1.11352539 20.5480957 C1 23 1 23 0 26 C-0.66 26 -1.32 26 -2 26 C-2 27.98 -2 29.96 -2 32 C-2.99 32 -3.98 32 -5 32 C-5.25 28.8125 -5.25 28.8125 -5 25 C-4.3503125 24.3090625 -3.700625 23.618125 -3.03125 22.90625 C-0.06430841 18.66124126 -0.32875655 14.75297826 -0.25 9.6875 C-0.22035156 8.75615234 -0.19070312 7.82480469 -0.16015625 6.86523438 C-0.08974096 4.57673735 -0.03690786 2.28924191 0 0 Z " fill="#A96B53" transform="translate(174,224)"/>
<path d="M0 0 C0 0.99 0 1.98 0 3 C-1.63790712 4.04644066 -3.31008021 5.0398183 -5 6 C-5.680625 6.721875 -6.36125 7.44375 -7.0625 8.1875 C-9 10 -9 10 -13 10 C-13 8.35 -13 6.7 -13 5 C-12.278125 4.731875 -11.55625 4.46375 -10.8125 4.1875 C-7.95860702 3.06767588 -7.95860702 3.06767588 -5.375 1.375 C-3 0 -3 0 0 0 Z " fill="#E0E2E0" transform="translate(13,86)"/>
<path d="M0 0 C0.99 0 1.98 0 3 0 C3.19491452 1.45736087 3.38069358 2.91594593 3.5625 4.375 C3.66691406 5.18710938 3.77132812 5.99921875 3.87890625 6.8359375 C4 9 4 9 3 11 C0.9375 11.625 0.9375 11.625 -1 12 C-1.73080266 10.02253397 -2.39421747 8.01927511 -3 6 C-2.67 5.34 -2.34 4.68 -2 4 C-1.34 4 -0.68 4 0 4 C0 2.68 0 1.36 0 0 Z " fill="#E6E6E6" transform="translate(207,238)"/>
<path d="M0 0 C0.33 0.66 0.66 1.32 1 2 C0.0625 4.125 0.0625 4.125 -1 6 C-0.34 6.33 0.32 6.66 1 7 C0.814375 7.515625 0.62875 8.03125 0.4375 8.5625 C-0.16094491 11.15140958 -0.16094491 11.15140958 0.5 14.375 C0.99019389 17.92890573 0.7633835 20.52236406 0 24 C-0.66 23.67 -1.32 23.34 -2 23 C-2 15.74 -2 8.48 -2 1 C-1.34 0.67 -0.68 0.34 0 0 Z " fill="#D0C1D0" transform="translate(243,60)"/>
<path d="M0 0 C4.42030004 6.63045007 9.17064454 16.12676627 7.54296875 24.29296875 C7.36378906 24.85628906 7.18460938 25.41960937 7 26 C5.21933807 22.79173841 4.33463944 19.69036195 3.5 16.125 C2.71349857 12.8432529 1.89770082 9.69848664 0.8125 6.5 C0 4 0 4 0 0 Z " fill="#FDAA89" transform="translate(168,153)"/>
<path d="M0 0 C0.33 0 0.66 0 1 0 C1.13277344 0.91523438 1.26554687 1.83046875 1.40234375 2.7734375 C1.57894531 3.96195313 1.75554687 5.15046875 1.9375 6.375 C2.11152344 7.55835938 2.28554687 8.74171875 2.46484375 9.9609375 C2.83462786 12.90702381 2.83462786 12.90702381 4 15 C4.06950541 16.54023996 4.08452357 18.08334988 4.0625 19.625 C4.05347656 20.44226563 4.04445313 21.25953125 4.03515625 22.1015625 C4.02355469 22.72804687 4.01195313 23.35453125 4 24 C3.34 24 2.68 24 2 24 C-0.07422976 15.96235969 -0.2144997 8.27015524 0 0 Z " fill="#DA9E87" transform="translate(91,232)"/>
<path d="M0 0 C0.33 0.66 0.66 1.32 1 2 C-0.6396875 2.2165625 -0.6396875 2.2165625 -2.3125 2.4375 C-5.93122987 2.88288104 -5.93122987 2.88288104 -9 4 C-9 8.95 -9 13.9 -9 19 C-9.33 19 -9.66 19 -10 19 C-10.10787818 16.22813012 -10.18723327 13.46044463 -10.25 10.6875 C-10.28351562 9.90181641 -10.31703125 9.11613281 -10.3515625 8.30664062 C-10.45024056 2.50930438 -10.45024056 2.50930438 -8.18359375 -0.0546875 C-5.12389798 -1.37927851 -3.15323233 -0.91093378 0 0 Z " fill="#84D084" transform="translate(17,7)"/>
<path d="M0 0 C0.66 0 1.32 0 2 0 C4.15059309 3.53186832 4.3797728 6.66287993 4.625 10.75 C4.69976562 11.92046875 4.77453125 13.0909375 4.8515625 14.296875 C4.90054688 15.18890625 4.94953125 16.0809375 5 17 C4.34 17 3.68 17 3 17 C1.89294352 14.78588704 1.7337884 13.20477815 1.5 10.75 C1.13222395 7.13645434 0.64202592 3.57700157 0 0 Z " fill="#E3E3E3" transform="translate(199,213)"/>
<path d="M0 0 C0.66 0.66 1.32 1.32 2 2 C1.65844727 3.71777344 1.65844727 3.71777344 1 6 C0.78694168 8.16874815 0.61308062 10.3414842 0.46484375 12.515625 C0.37783203 13.76601563 0.29082031 15.01640625 0.20117188 16.3046875 C0.11416016 17.60664062 0.02714844 18.90859375 -0.0625 20.25 C-0.15396895 21.58075175 -0.24576229 22.91148124 -0.33789062 24.2421875 C-0.56178768 27.49458677 -0.7823637 30.74717678 -1 34 C-1.33 34 -1.66 34 -2 34 C-2.13237453 26.63115142 -1.93094406 19.2958941 -1.5625 11.9375 C-1.52326416 11.10436279 -1.48402832 10.27122559 -1.44360352 9.4128418 C-1.40162842 8.62562744 -1.35965332 7.83841309 -1.31640625 7.02734375 C-1.27974854 6.32343506 -1.24309082 5.61952637 -1.20532227 4.89428711 C-1 3 -1 3 0 0 Z " fill="#D7C9D7" transform="translate(233,22)"/>
<path d="M0 0 C4.95 1.98 4.95 1.98 10 4 C10 4.66 10 5.32 10 6 C10.66 6 11.32 6 12 6 C12 7.98 12 9.96 12 12 C11.67 12 11.34 12 11 12 C11 10.35 11 8.7 11 7 C7.37 6.34 3.74 5.68 0 5 C0 3.35 0 1.7 0 0 Z " fill="#C1C0C0" transform="translate(181,199)"/>
<path d="M0 0 C0.33 0 0.66 0 1 0 C2.37292913 8.3969326 3.31274919 16.48627215 3 25 C2.67 25 2.34 25 2 25 C2 22.03 2 19.06 2 16 C1.34 16 0.68 16 0 16 C0 10.72 0 5.44 0 0 Z " fill="#CD7957" transform="translate(91,200)"/>
<path d="M0 0 C0.66 0 1.32 0 2 0 C3.585869 3.171738 3.37866445 6.63513822 3.5625 10.125 C3.60568359 10.87910156 3.64886719 11.63320312 3.69335938 12.41015625 C3.7994832 14.27321888 3.90025001 16.13658524 4 18 C3.34 17.67 2.68 17.34 2 17 C0.47749852 11.48328169 -0.30915555 5.71937774 0 0 Z " fill="#FEF0EA" transform="translate(177,160)"/>
<path d="M0 0 C0.99 0.33 1.98 0.66 3 1 C2.2575 1.66 1.515 2.32 0.75 3 C-2.46180754 6.17520574 -4.18475721 9.91316847 -6 14 C-6.66 13.67 -7.32 13.34 -8 13 C-6.33766168 7.50149633 -4.88568639 3.25712426 0 0 Z " fill="#DBCDDB" transform="translate(241,8)"/>
<path d="M0 0 C0.66 0 1.32 0 2 0 C1.979375 1.11375 1.95875 2.2275 1.9375 3.375 C1.73619282 6.83215921 1.73619282 6.83215921 3 9 C2.75378093 10.88484944 2.43111913 12.76022087 2.0625 14.625 C1.86785156 15.62789062 1.67320312 16.63078125 1.47265625 17.6640625 C1.31667969 18.43492188 1.16070312 19.20578125 1 20 C0.67 20 0.34 20 0 20 C0 13.4 0 6.8 0 0 Z " fill="#C5B7C5" transform="translate(249,12)"/>
<path d="M0 0 C0.33 0 0.66 0 1 0 C1 3.63 1 7.26 1 11 C-0.32 11 -1.64 11 -3 11 C-3 9.02 -3 7.04 -3 5 C-2.34 5 -1.68 5 -1 5 C-0.67 3.35 -0.34 1.7 0 0 Z " fill="#B48471" transform="translate(175,245)"/>
<path d="M0 0 C3.80984844 2.77079887 4.06840752 6.62868145 5 11 C3.68 11.33 2.36 11.66 1 12 C0.01751476 7.9472484 -0.08159574 4.16138263 0 0 Z " fill="#B9B9B9" transform="translate(197,222)"/>
<path d="M0 0 C0 0.66 0 1.32 0 2 C0.66 2 1.32 2 2 2 C2 3.32 2 4.64 2 6 C1.34 6 0.68 6 0 6 C0 5.34 0 4.68 0 4 C-4.455 4.495 -4.455 4.495 -9 5 C-7.36885863 1.73771726 -3.62038485 0 0 0 Z " fill="#B5C5B5" transform="translate(13,81)"/>
<path d="M0 0 C1.2380014 3.57644848 0.74926071 6.33694766 0 10 C-0.99 10 -1.98 10 -3 10 C-3.36923077 3.47692308 -3.36923077 3.47692308 -1.5 1.0625 C-1.005 0.711875 -0.51 0.36125 0 0 Z " fill="#B66749" transform="translate(172,246)"/>
<path d="M0 0 C1.43410153 3.78819273 0.51009497 6.06521279 -0.9375 9.75 C-1.31777344 10.73484375 -1.69804688 11.7196875 -2.08984375 12.734375 C-2.39019531 13.48203125 -2.69054687 14.2296875 -3 15 C-3.33 15 -3.66 15 -4 15 C-4.45356243 8.53673535 -3.59378942 5.39068413 0 0 Z " fill="#F9A888" transform="translate(93,168)"/>
<path d="M0 0 C0.33 0 0.66 0 1 0 C1 3.63 1 7.26 1 11 C0.01 11.495 0.01 11.495 -1 12 C-1.73080266 10.02253397 -2.39421747 8.01927511 -3 6 C-2.67 5.34 -2.34 4.68 -2 4 C-1.34 4 -0.68 4 0 4 C0 2.68 0 1.36 0 0 Z " fill="#CCCCCC" transform="translate(207,238)"/>
<path d="M0 0 C0.66 0.33 1.32 0.66 2 1 C2 2.98 2 4.96 2 7 C0.35 6.67 -1.3 6.34 -3 6 C-2.625 3.5625 -2.625 3.5625 -2 1 C-1.34 0.67 -0.68 0.34 0 0 Z " fill="#DBD9DB" transform="translate(254,91)"/>
<path d="M0 0 C0.99 0 1.98 0 3 0 C2.69024532 1.77131561 2.37709575 3.54203778 2.0625 5.3125 C1.88847656 6.29863281 1.71445313 7.28476562 1.53515625 8.30078125 C1 11 1 11 0 14 C-0.66 14 -1.32 14 -2 14 C-1.34 9.38 -0.68 4.76 0 0 Z " fill="#C5B7C5" transform="translate(248,32)"/>
<path d="M0 0 C0.99 0.33 1.98 0.66 3 1 C2.50886719 1.54140625 2.01773437 2.0828125 1.51171875 2.640625 C-0.3667612 5.57241283 -0.31060725 7.30299691 -0.1875 10.75 C-0.16042969 11.73484375 -0.13335937 12.7196875 -0.10546875 13.734375 C-0.07066406 14.48203125 -0.03585937 15.2296875 0 16 C-0.33 16 -0.66 16 -1 16 C-1.22127098 13.70954632 -1.4266504 11.41755236 -1.625 9.125 C-1.74101562 7.84882813 -1.85703125 6.57265625 -1.9765625 5.2578125 C-1.98816406 3.64519531 -1.98816406 3.64519531 -2 2 C-1.34 1.34 -0.68 0.68 0 0 Z " fill="#6DE76D" transform="translate(11,9)"/>
<path d="M0 0 C0.75 1.5625 0.75 1.5625 1 4 C-0.13084437 6.50286409 -1.52139516 8.67007722 -3 11 C-3.33 11 -3.66 11 -4 11 C-4.36630156 7.06225823 -4.30233203 5.43460229 -2 2.125 C-1.34 1.42375 -0.68 0.7225 0 0 Z " fill="#FEBFA6" transform="translate(93,164)"/>
<path d="M0 0 C0.33 0 0.66 0 1 0 C1.33 2.31 1.66 4.62 2 7 C2.66 7 3.32 7 4 7 C5.42944945 9.35438733 6.08661261 10.48032433 5.625 13.25 C5.41875 13.8275 5.2125 14.405 5 15 C4.360625 14.030625 3.72125 13.06125 3.0625 12.0625 C1.3034741 9.23963731 1.3034741 9.23963731 0 8 C-0.14115161 5.32941149 -0.04247107 2.67567762 0 0 Z " fill="#EC6732" transform="translate(168,170)"/>
<path d="M0 0 C0.33 0 0.66 0 1 0 C1.12375 1.0725 1.2475 2.145 1.375 3.25 C1.78173316 6.82385483 1.78173316 6.82385483 3.0625 9.125 C4.25409043 11.50818085 4.14598495 13.37227096 4 16 C1.18140613 13.18140613 0.09076803 10.6905546 -0.125 6.671875 C-0.125 4.44437197 -0.08728135 2.22567441 0 0 Z " fill="#FE8454" transform="translate(166,153)"/>
<path d="M0 0 C0.99 0.33 1.98 0.66 3 1 C2.46930939 4.82097239 1.50298434 7.06171403 -1 10 C-1.125 2.25 -1.125 2.25 0 0 Z " fill="#95D795" transform="translate(30,79)"/>
<path d="M0 0 C0.33 0 0.66 0 1 0 C1 2.31 1 4.62 1 7 C-0.875 8.0625 -0.875 8.0625 -3 9 C-3.66 8.67 -4.32 8.34 -5 8 C-4.54625 7.608125 -4.0925 7.21625 -3.625 6.8125 C-1.72357081 4.69167513 -0.93795972 2.66957765 0 0 Z " fill="#D1EDD1" transform="translate(34,87)"/>
<path d="M0 0 C1.90389849 2.85584773 2.69462177 4.9311762 3.625 8.1875 C4.01558594 9.53908203 4.01558594 9.53908203 4.4140625 10.91796875 C4.60742188 11.60503906 4.80078125 12.29210937 5 13 C4.01 13 3.02 13 2 13 C1.66127487 11.58461283 1.32925376 10.16762037 1 8.75 C0.814375 7.96109375 0.62875 7.1721875 0.4375 6.359375 C0 4 0 4 0 0 Z " fill="#FC7541" transform="translate(167,164)"/>
<path d="M0 0 C1.95216435 3.90432869 2.50639991 6.72213252 3 11 C2.01 10.67 1.02 10.34 0 10 C0 6.7 0 3.4 0 0 Z " fill="#7AE37A" transform="translate(16,71)"/>
<path d="M0 0 C1.53224072 2.43355879 2.03344238 3.65721564 1.75 6.5625 C1 9 1 9 -1 12 C-1.66 11.67 -2.32 11.34 -3 11 C-2.690625 10.484375 -2.38125 9.96875 -2.0625 9.4375 C-0.70940713 6.33334577 -0.38640576 3.34884993 0 0 Z " fill="#D8C7D8" transform="translate(245,37)"/>
<path d="M0 0 C0.66 0.33 1.32 0.66 2 1 C0.02 3.31 -1.96 5.62 -4 8 C-4.66 7.67 -5.32 7.34 -6 7 C-4.60667426 3.63279613 -3.0210714 2.0140476 0 0 Z " fill="#CBC1CB" transform="translate(228,76)"/>
<path d="M0 0 C0.66 0 1.32 0 2 0 C2 2.31 2 4.62 2 7 C1.01 7 0.02 7 -1 7 C-1.04254356 5.00045254 -1.04080783 2.99958364 -1 1 C-0.67 0.67 -0.34 0.34 0 0 Z " fill="#B4ADAA" transform="translate(178,249)"/>
<path d="M0 0 C3.71599191 -0.20086443 4.77208445 -0.1519437 8 2 C8.1875 5.125 8.1875 5.125 8 8 C7.67 8 7.34 8 7 8 C7 6.35 7 4.7 7 3 C5.824375 2.814375 5.824375 2.814375 4.625 2.625 C2 2 2 2 0 0 Z " fill="#B1B2B2" transform="translate(184,204)"/>
<path d="M0 0 C2.9375 0.375 2.9375 0.375 6 1 C6.33 1.66 6.66 2.32 7 3 C4.36 3.33 1.72 3.66 -1 4 C-0.67 2.68 -0.34 1.36 0 0 Z " fill="#7DD47D" transform="translate(11,6)"/>
<path d="M0 0 C0.33 0.99 0.66 1.98 1 3 C0.01 4.485 0.01 4.485 -1 6 C-1.39013716 7.9896995 -1.73202649 9.99019869 -2 12 C-2.33 12 -2.66 12 -3 12 C-3.2954439 6.97745369 -2.98514628 4.10457614 0 0 Z " fill="#AD9D97" transform="translate(179,244)"/>
<path d="M0 0 C0.66 0.33 1.32 0.66 2 1 C-0.83430453 4.2542015 -2.68607774 5.5206753 -7 6 C-7 5.34 -7 4.68 -7 4 C-5.824375 3.566875 -5.824375 3.566875 -4.625 3.125 C-1.90328368 2.15087746 -1.90328368 2.15087746 0 0 Z " fill="#D3D6D3" transform="translate(7,87)"/>
<path d="M0 0 C0.33 0.66 0.66 1.32 1 2 C1.763125 1.95875 2.52625 1.9175 3.3125 1.875 C6 2 6 2 9 4 C8.67 4.66 8.34 5.32 8 6 C5.36 5.01 2.72 4.02 0 3 C0 2.01 0 1.02 0 0 Z " fill="#E8E5E4" transform="translate(181,193)"/>
</svg>
